<svg width="24" height="24" viewBox="0 0 24 24" fill="none" xmlns="http://www.w3.org/2000/svg">
<path fill-rule="evenodd" clip-rule="evenodd" d="M18.7071 5.29289C19.0976 5.68342 19.0976 6.31658 18.7071 6.70711L6.70711 18.7071C6.31658 19.0976 5.68342 19.0976 5.29289 18.7071C4.90237 18.3166 4.90237 17.6834 5.29289 17.2929L17.2929 5.29289C17.6834 4.90237 18.3166 4.90237 18.7071 5.29289Z" fill="#69B99D"/>
<path fill-rule="evenodd" clip-rule="evenodd" d="M18.3536 5.64645C18.1583 5.45118 17.8417 5.45118 17.6464 5.64645L5.64645 17.6464C5.45118 17.8417 5.45118 18.1583 5.64645 18.3536L5.29289 18.7071L5.64645 18.3536C5.84171 18.5488 6.15829 18.5488 6.35355 18.3536L6.67497 18.675L6.35355 18.3536L18.3536 6.35355L18.675 6.67497L18.3536 6.35355C18.5488 6.15829 18.5488 5.84171 18.3536 5.64645L18.7062 5.29381L18.3536 5.64645ZM16.9393 4.93934C17.5251 4.35355 18.4749 4.35355 19.0607 4.93934C19.6464 5.52513 19.6464 6.47487 19.0607 7.06066L7.06066 19.0607C6.47487 19.6464 5.52513 19.6464 4.93934 19.0607C4.35355 18.4749 4.35355 17.5251 4.93934 16.9393L16.9393 4.93934Z" fill="#69B99D"/>
<path fill-rule="evenodd" clip-rule="evenodd" d="M5.29289 5.29289C5.68342 4.90237 6.31658 4.90237 6.70711 5.29289L18.7071 17.2929C19.0976 17.6834 19.0976 18.3166 18.7071 18.7071C18.3166 19.0976 17.6834 19.0976 17.2929 18.7071L5.29289 6.70711C4.90237 6.31658 4.90237 5.68342 5.29289 5.29289Z" fill="#69B99D"/>
<path fill-rule="evenodd" clip-rule="evenodd" d="M6.35355 5.64645C6.15829 5.45118 5.84171 5.45118 5.64645 5.64645C5.45118 5.84171 5.45118 6.15829 5.64645 6.35355L17.6464 18.3536C17.8417 18.5488 18.1583 18.5488 18.3536 18.3536C18.5488 18.1583 18.5488 17.8417 18.3536 17.6464L6.35355 5.64645ZM4.93934 4.93934C5.52513 4.35355 6.47487 4.35355 7.06066 4.93934L19.0607 16.9393C19.6464 17.5251 19.6464 18.4749 19.0607 19.0607C18.4749 19.6464 17.5251 19.6464 16.9393 19.0607L4.93934 7.06066C4.35355 6.47487 4.35355 5.52513 4.93934 4.93934Z" fill="#69B99D"/>
</svg>
