<svg width="80" height="80" viewBox="0 0 80 80" fill="none" xmlns="http://www.w3.org/2000/svg">
<path d="M4.47192 8.83008L9.45824 66.1773V71.125C9.46264 74.5752 12.258 77.3706 15.7082 77.375H28.2082C31.6584 77.3706 34.4538 74.5752 34.4582 71.125V66.1773L39.4441 8.83008L40.6711 3.92871C40.7644 3.55518 40.6809 3.15918 40.4436 2.85596C40.2068 2.55273 39.8435 2.375 39.4582 2.375H4.45825C4.07299 2.375 3.7102 2.55273 3.47241 2.85596C3.23559 3.15918 3.15209 3.55518 3.24536 3.92871L4.47192 8.83008ZM33.2585 51.125H10.6584L10.0071 43.625H33.9094L33.2585 51.125ZM33.0412 53.625L32.0622 64.875H11.8547L10.8757 53.625H33.0412ZM17.5832 67.375H26.3332V68.625C26.3332 69.3154 25.7737 69.875 25.0832 69.875H18.8332C18.1428 69.875 17.5832 69.3154 17.5832 68.625V67.375ZM31.9582 71.125C31.9582 73.1958 30.279 74.875 28.2082 74.875H15.7082C13.6374 74.875 11.9582 73.1958 11.9582 71.125V67.375H15.0832V68.625C15.0832 70.6958 16.7624 72.375 18.8332 72.375H25.0832C27.154 72.375 28.8332 70.6958 28.8332 68.625V67.375H31.9582V71.125ZM34.1267 41.125H9.78979L7.07201 9.875H36.845L34.1267 41.125ZM37.8567 4.875L37.2317 7.375H6.68432L6.05932 4.875H37.8567Z" fill="#69B99D"/>
<path fill-rule="evenodd" clip-rule="evenodd" d="M5.46128 8.66435L10.4582 66.1339V71.1244C10.4623 74.023 12.8109 76.3713 15.7095 76.375H28.207C31.1059 76.3713 33.4545 74.0226 33.4582 71.1237V66.1339L38.4547 8.6643L39.7009 3.68647C39.7199 3.61054 39.7025 3.53159 39.6561 3.47227C39.6084 3.41115 39.5349 3.375 39.4582 3.375H4.45825C4.38266 3.375 4.30949 3.40955 4.25993 3.47225C4.21386 3.53172 4.19671 3.61064 4.21552 3.68626C4.21554 3.68633 4.2155 3.68619 4.21552 3.68626L5.46128 8.66435ZM3.24536 3.92871C3.15209 3.55518 3.23559 3.15918 3.47241 2.85596C3.7102 2.55273 4.07299 2.375 4.45825 2.375H39.4582C39.8435 2.375 40.2068 2.55273 40.4436 2.85596C40.6809 3.15918 40.7644 3.55518 40.6711 3.92871L39.4441 8.83008L34.4582 66.1773V71.125C34.4538 74.5752 31.6584 77.3706 28.2082 77.375H15.7082C12.258 77.3706 9.46264 74.5752 9.45824 71.125V66.1773L4.47192 8.83008L3.24536 3.92871ZM34.1755 52.125H9.74152L8.91646 42.625H35L34.1755 52.125ZM34.132 52.625L32.979 65.875H10.938L9.78492 52.625H34.132ZM16.5832 66.375H27.3332V68.625C27.3332 69.8677 26.326 70.875 25.0832 70.875H18.8332C17.5905 70.875 16.5832 69.8677 16.5832 68.625V66.375ZM10.9582 66.375H16.0832V68.625C16.0832 70.1435 17.3147 71.375 18.8332 71.375H25.0832C26.6018 71.375 27.8332 70.1435 27.8332 68.625V66.375H32.9582V71.125C32.9582 73.7481 30.8313 75.875 28.2082 75.875H15.7082C13.0852 75.875 10.9582 73.7481 10.9582 71.125V66.375ZM35.0435 42.125H8.87298L5.98127 8.875H37.9357L35.0435 42.125ZM39.1375 3.875L38.0125 8.375H5.90354L4.77854 3.875H39.1375ZM33.2585 51.125L33.9094 43.625H10.0071L10.6584 51.125H33.2585ZM33.0412 53.625H10.8757L11.8547 64.875H32.0622L33.0412 53.625ZM34.1267 41.125H9.78979L7.07201 9.875H36.845L34.1267 41.125ZM37.8567 4.875H6.05932L6.68432 7.375H37.2317L37.8567 4.875ZM17.5832 67.375V68.625C17.5832 69.3154 18.1428 69.875 18.8332 69.875H25.0832C25.7737 69.875 26.3332 69.3154 26.3332 68.625V67.375H17.5832ZM28.2082 74.875C30.279 74.875 31.9582 73.1958 31.9582 71.125V67.375H28.8332V68.625C28.8332 70.6958 27.154 72.375 25.0832 72.375H18.8332C16.7624 72.375 15.0832 70.6958 15.0832 68.625V67.375H11.9582V71.125C11.9582 73.1958 13.6374 74.875 15.7082 74.875H28.2082Z" fill="#69B99D"/>
<path d="M50.7084 77.375H68.2085C70.2793 77.375 71.9585 75.6958 71.9585 73.625V26.125C71.9555 23.6426 70.4834 21.398 68.2085 20.4048V16.125C68.2085 15.4346 67.6489 14.875 66.9584 14.875H63.2084V9.875H75.7085C76.2138 9.875 76.6699 9.57031 76.8632 9.10352C77.0566 8.63672 76.9492 8.09863 76.5923 7.74121L74.0922 5.24121C73.9013 5.05029 73.6533 4.92627 73.3862 4.88721L55.8862 2.38721C55.8271 2.37939 55.7675 2.375 55.7084 2.375H50.7084C50.018 2.375 49.4584 2.93457 49.4584 3.625V8.625C49.4584 9.31543 50.018 9.875 50.7084 9.875H55.7084V14.875H51.9584C51.268 14.875 50.7084 15.4346 50.7084 16.125V20.4048C48.4335 21.398 46.9613 23.6426 46.9584 26.125V73.625C46.9584 75.6958 48.6376 77.375 50.7084 77.375ZM69.4585 32.375H49.4584V29.875H69.4585V32.375ZM69.4585 59.875H49.4584V34.875H69.4585V59.875ZM68.2085 74.875H50.7084C50.018 74.875 49.4584 74.3154 49.4584 73.625V62.375H69.4585V73.625C69.4585 74.3154 68.8989 74.875 68.2085 74.875ZM51.9584 4.875H55.6201L72.6196 7.30371L72.6909 7.375H51.9584V4.875ZM58.2084 9.875H60.7084V14.875H58.2084V9.875ZM53.2084 17.375H65.7084V19.875H53.2084V17.375ZM53.2084 22.375H65.7084C67.7793 22.375 69.4585 24.0542 69.4585 26.125V27.375H49.4584V26.125C49.4584 24.0542 51.1376 22.375 53.2084 22.375Z" fill="#69B99D"/>
<path fill-rule="evenodd" clip-rule="evenodd" d="M67.2085 21.0594V16.125C67.2085 15.9869 67.0966 15.875 66.9584 15.875H62.2084V8.875H75.7085C75.8095 8.875 75.9008 8.81386 75.9394 8.72082L76.8632 9.10352C76.6699 9.57031 76.2138 9.875 75.7085 9.875H63.2084V14.875H66.9584C67.6489 14.875 68.2085 15.4346 68.2085 16.125V20.4048C70.4834 21.398 71.9555 23.6426 71.9585 26.125V73.625C71.9585 75.6958 70.2793 77.375 68.2085 77.375H50.7084C48.6376 77.375 46.9584 75.6958 46.9584 73.625V26.125C46.9613 23.6426 48.4335 21.398 50.7084 20.4048V16.125C50.7084 15.4346 51.268 14.875 51.9584 14.875H55.7084V9.875H50.7084C50.018 9.875 49.4584 9.31543 49.4584 8.625V3.625C49.4584 2.93457 50.018 2.375 50.7084 2.375H55.7084C55.7675 2.375 55.8271 2.37939 55.8862 2.38721L73.3862 4.88721C73.6533 4.92627 73.9013 5.05029 74.0922 5.24121L73.3851 5.94832C73.3475 5.91066 73.2974 5.88508 73.2425 5.87683C73.2421 5.87678 73.2418 5.87673 73.2415 5.87668L55.7512 3.37808C55.732 3.37568 55.7177 3.375 55.7084 3.375H50.7084C50.5703 3.375 50.4584 3.48686 50.4584 3.625V8.625C50.4584 8.76314 50.5703 8.875 50.7084 8.875H56.7084V15.875H51.9584C51.8203 15.875 51.7084 15.9869 51.7084 16.125V21.0594L51.1085 21.3213C49.1975 22.1555 47.9611 24.0408 47.9584 26.1256V73.625C47.9584 75.1435 49.1899 76.375 50.7084 76.375H68.2085C69.727 76.375 70.9585 75.1435 70.9585 73.625V26.1262C70.956 24.0412 69.7195 22.1556 67.8083 21.3213L67.2085 21.0594ZM76.5923 7.74121L74.0922 5.24121L73.3851 5.94832L75.8847 8.44784C75.9566 8.51987 75.9777 8.62829 75.9394 8.72082L76.8632 9.10352C77.0566 8.63672 76.9492 8.09863 76.5923 7.74121ZM70.4585 33.375H48.4584V28.875H70.4585V33.375ZM70.4585 60.875H48.4584V33.875H70.4585V60.875ZM48.4584 61.375H70.4585V73.625C70.4585 74.8677 69.4512 75.875 68.2085 75.875H50.7084C49.4657 75.875 48.4584 74.8677 48.4584 73.625V61.375ZM50.9584 3.875H55.6911L73.091 6.36091L75.1051 8.375H50.9584V3.875ZM57.2084 8.875H61.7084V15.875H57.2084V8.875ZM52.2084 16.375H66.7084V20.875H52.2084V16.375ZM70.4585 28.375H48.4584V26.125C48.4584 23.5019 50.5853 21.375 53.2084 21.375H65.7084C68.3315 21.375 70.4585 23.5019 70.4585 26.125V28.375ZM51.9584 7.375V4.875H55.6201L72.6196 7.30371L72.6909 7.375H51.9584ZM69.4585 32.375V29.875H49.4584V32.375H69.4585ZM69.4585 59.875V34.875H49.4584V59.875H69.4585ZM50.7084 74.875H68.2085C68.8989 74.875 69.4585 74.3154 69.4585 73.625V62.375H49.4584V73.625C49.4584 74.3154 50.018 74.875 50.7084 74.875ZM58.2084 9.875V14.875H60.7084V9.875H58.2084ZM53.2084 17.375V19.875H65.7084V17.375H53.2084ZM65.7084 22.375H53.2084C51.1376 22.375 49.4584 24.0542 49.4584 26.125V27.375H69.4585V26.125C69.4585 24.0542 67.7793 22.375 65.7084 22.375Z" fill="#69B99D"/>
<path d="M14.4584 48.625H29.4584C30.1488 48.625 30.7084 48.0654 30.7084 47.375C30.7084 46.6846 30.1488 46.125 29.4584 46.125H14.4584C13.768 46.125 13.2084 46.6846 13.2084 47.375C13.2084 48.0654 13.768 48.625 14.4584 48.625Z" fill="#69B99D"/>
<path fill-rule="evenodd" clip-rule="evenodd" d="M14.4584 47.625H29.4584C29.5966 47.625 29.7084 47.5131 29.7084 47.375C29.7084 47.2369 29.5966 47.125 29.4584 47.125H14.4584C14.3203 47.125 14.2084 47.2369 14.2084 47.375C14.2084 47.5131 14.3203 47.625 14.4584 47.625ZM29.4584 48.625H14.4584C13.768 48.625 13.2084 48.0654 13.2084 47.375C13.2084 46.6846 13.768 46.125 14.4584 46.125H29.4584C30.1488 46.125 30.7084 46.6846 30.7084 47.375C30.7084 48.0654 30.1488 48.625 29.4584 48.625Z" fill="#69B99D"/>
<path d="M59.4584 69.875H54.4584V66.125C54.4584 65.4346 53.8989 64.875 53.2084 64.875C52.518 64.875 51.9584 65.4346 51.9584 66.125V71.125C51.9584 71.8154 52.518 72.375 53.2084 72.375H59.4584C60.1489 72.375 60.7084 71.8154 60.7084 71.125C60.7084 70.4346 60.1489 69.875 59.4584 69.875Z" fill="#69B99D"/>
<path fill-rule="evenodd" clip-rule="evenodd" d="M53.4584 70.875V66.125C53.4584 65.9869 53.3466 65.875 53.2084 65.875C53.0703 65.875 52.9584 65.9869 52.9584 66.125V71.125C52.9584 71.2631 53.0703 71.375 53.2084 71.375H59.4584C59.5966 71.375 59.7084 71.2631 59.7084 71.125C59.7084 70.9869 59.5966 70.875 59.4584 70.875H53.4584ZM59.4584 69.875C60.1489 69.875 60.7084 70.4346 60.7084 71.125C60.7084 71.8154 60.1489 72.375 59.4584 72.375H53.2084C52.518 72.375 51.9584 71.8154 51.9584 71.125V66.125C51.9584 65.4346 52.518 64.875 53.2084 64.875C53.8989 64.875 54.4584 65.4346 54.4584 66.125V69.875H59.4584Z" fill="#69B99D"/>
<path d="M65.7084 69.875H64.4584C63.768 69.875 63.2084 70.4346 63.2084 71.125C63.2084 71.8154 63.768 72.375 64.4584 72.375H65.7084C66.3988 72.375 66.9584 71.8154 66.9584 71.125C66.9584 70.4346 66.3988 69.875 65.7084 69.875Z" fill="#69B99D"/>
<path fill-rule="evenodd" clip-rule="evenodd" d="M65.7084 70.875H64.4584C64.3203 70.875 64.2084 70.9869 64.2084 71.125C64.2084 71.2631 64.3203 71.375 64.4584 71.375H65.7084C65.8466 71.375 65.9584 71.2631 65.9584 71.125C65.9584 70.9869 65.8466 70.875 65.7084 70.875ZM64.4584 69.875H65.7084C66.3988 69.875 66.9584 70.4346 66.9584 71.125C66.9584 71.8154 66.3988 72.375 65.7084 72.375H64.4584C63.768 72.375 63.2084 71.8154 63.2084 71.125C63.2084 70.4346 63.768 69.875 64.4584 69.875Z" fill="#69B99D"/>
<path d="M27.8133 62.3115C28.4686 62.5288 29.1751 62.1748 29.3929 61.52L30.6429 57.77C30.8617 57.1142 30.5072 56.4057 29.8509 56.187C29.1947 55.9692 28.4867 56.3237 28.2684 56.9799L27.0184 60.7299C26.9139 61.0449 26.9388 61.3886 27.0877 61.685C27.2367 61.9819 27.4979 62.207 27.8133 62.3115Z" fill="#69B99D"/>
<path fill-rule="evenodd" clip-rule="evenodd" d="M28.1281 61.3623C28.2599 61.406 28.4006 61.335 28.444 61.2044L29.6942 57.4537C29.7379 57.3228 29.6678 57.1804 29.5353 57.1359C29.4028 57.0922 29.2611 57.1637 29.2173 57.2955L27.9675 61.0449C27.9675 61.045 27.9676 61.0447 27.9675 61.0449C27.9467 61.108 27.9517 61.1772 27.9813 61.2361C28.0106 61.2945 28.0633 61.3409 28.1281 61.3623ZM27.0184 60.7299L28.2684 56.9799C28.4867 56.3237 29.1947 55.9692 29.8509 56.187C30.5072 56.4057 30.8617 57.1142 30.6429 57.77L29.3929 61.52C29.1751 62.1748 28.4686 62.5288 27.8133 62.3115C27.4979 62.207 27.2367 61.9819 27.0877 61.685C26.9388 61.3886 26.9139 61.0449 27.0184 60.7299Z" fill="#69B99D"/>
</svg>
