<svg width="24" height="24" viewBox="0 0 24 24" fill="none" xmlns="http://www.w3.org/2000/svg">
<path fill-rule="evenodd" clip-rule="evenodd" d="M10.7574 2.75736C11.8826 1.63214 13.4087 1 15 1H18C18.5523 1 19 1.44772 19 2V6C19 6.55228 18.5523 7 18 7H15V9H18C18.3079 9 18.5987 9.14187 18.7882 9.38459C18.9777 9.6273 19.0448 9.94379 18.9701 10.2425L17.9701 14.2425C17.8589 14.6877 17.4589 15 17 15H15V22C15 22.5523 14.5523 23 14 23H10C9.44772 23 9.00001 22.5523 9.00001 22V15H7.00001C6.44772 15 6.00001 14.5523 6.00001 14V10C6.00001 9.44772 6.44772 9 7.00001 9H9.00001V7C9.00001 5.4087 9.63215 3.88258 10.7574 2.75736ZM15 3C13.9391 3 12.9217 3.42143 12.1716 4.17157C11.4214 4.92172 11 5.93913 11 7V10C11 10.5523 10.5523 11 10 11H8.00001V13H10C10.5523 13 11 13.4477 11 14V21H13V14C13 13.4477 13.4477 13 14 13H16.2192L16.7192 11H14C13.4477 11 13 10.5523 13 10V7C13 6.46957 13.2107 5.96086 13.5858 5.58579C13.9609 5.21071 14.4696 5 15 5H17V3H15Z" fill="#69B99D"/>
<path fill-rule="evenodd" clip-rule="evenodd" d="M15 1.5C13.5413 1.5 12.1424 2.07946 11.1109 3.11091C10.0795 4.14236 9.50001 5.54131 9.50001 7V9C9.50001 9.27614 9.27615 9.5 9.00001 9.5H7.00001C6.72387 9.5 6.50001 9.72386 6.50001 10V14C6.50001 14.2761 6.72387 14.5 7.00001 14.5H9.00001C9.27615 14.5 9.50001 14.7239 9.50001 15V22C9.50001 22.2761 9.72387 22.5 10 22.5H14C14.2762 22.5 14.5 22.2761 14.5 22V15C14.5 14.7239 14.7239 14.5 15 14.5H17C17.2294 14.5 17.4294 14.3439 17.4851 14.1213L18.4851 10.1213C18.5224 9.9719 18.4889 9.81365 18.3941 9.6923C18.2994 9.57094 18.154 9.5 18 9.5H15C14.7239 9.5 14.5 9.27614 14.5 9V7C14.5 6.72386 14.7239 6.5 15 6.5H18C18.2761 6.5 18.5 6.27614 18.5 6V2C18.5 1.72386 18.2761 1.5 18 1.5H15ZM10.4038 2.40381C11.6228 1.18482 13.2761 0.5 15 0.5H18C18.8284 0.5 19.5 1.17157 19.5 2V6C19.5 6.82843 18.8284 7.5 18 7.5H15.5V8.5H18C18.4619 8.5 18.8981 8.71281 19.1823 9.07688C19.4666 9.44096 19.5672 9.91569 19.4552 10.3638L18.4552 14.3638C18.2883 15.0316 17.6883 15.5 17 15.5H15.5V22C15.5 22.8284 14.8284 23.5 14 23.5H10C9.17158 23.5 8.50001 22.8284 8.50001 22V15.5H7.00001C6.17158 15.5 5.50001 14.8284 5.50001 14V10C5.50001 9.17157 6.17158 8.5 7.00001 8.5H8.50001V7C8.50001 5.27609 9.18483 3.62279 10.4038 2.40381ZM11.818 3.81802C12.6619 2.97411 13.8065 2.5 15 2.5H17C17.2761 2.5 17.5 2.72386 17.5 3V5C17.5 5.27614 17.2761 5.5 17 5.5H15C14.6022 5.5 14.2207 5.65804 13.9393 5.93934C13.658 6.22064 13.5 6.60218 13.5 7V10C13.5 10.2761 13.7239 10.5 14 10.5H16.7192C16.8732 10.5 17.0186 10.5709 17.1133 10.6923C17.2081 10.8137 17.2416 10.9719 17.2043 11.1213L16.7043 13.1213C16.6487 13.3439 16.4487 13.5 16.2192 13.5H14C13.7239 13.5 13.5 13.7239 13.5 14V21C13.5 21.2761 13.2761 21.5 13 21.5H11C10.7239 21.5 10.5 21.2761 10.5 21V14C10.5 13.7239 10.2761 13.5 10 13.5H8.00001C7.72387 13.5 7.50001 13.2761 7.50001 13V11C7.50001 10.7239 7.72387 10.5 8.00001 10.5H10C10.2761 10.5 10.5 10.2761 10.5 10V7C10.5 5.80653 10.9741 4.66193 11.818 3.81802ZM15 3.5C14.0717 3.5 13.1815 3.86875 12.5251 4.52513C11.8688 5.1815 11.5 6.07174 11.5 7V10C11.5 10.8284 10.8284 11.5 10 11.5H8.50001V12.5H10C10.8284 12.5 11.5 13.1716 11.5 14V20.5H12.5V14C12.5 13.1716 13.1716 12.5 14 12.5H15.8288L16.0788 11.5H14C13.1716 11.5 12.5 10.8284 12.5 10V7C12.5 6.33696 12.7634 5.70107 13.2322 5.23223C13.7011 4.76339 14.337 4.5 15 4.5H16.5V3.5H15Z" fill="#69B99D"/>
</svg>
