<svg width="24" height="24" viewBox="0 0 24 24" fill="none" xmlns="http://www.w3.org/2000/svg">
<path fill-rule="evenodd" clip-rule="evenodd" d="M7 3C4.79086 3 3 4.79086 3 7V17C3 19.2091 4.79086 21 7 21H17C19.2091 21 21 19.2091 21 17V7C21 4.79086 19.2091 3 17 3H7ZM0.999996 7C0.999996 3.68629 3.68629 1 7 1H17C20.3137 1 23 3.68629 23 7V17C23 20.3137 20.3137 23 17 23H7C3.68629 23 0.999996 20.3137 0.999996 17V7Z" fill="#69B99D"/>
<path fill-rule="evenodd" clip-rule="evenodd" d="M7 1.5C3.96243 1.5 1.5 3.96243 1.5 7V17C1.5 20.0376 3.96243 22.5 7 22.5H17C20.0376 22.5 22.5 20.0376 22.5 17V7C22.5 3.96243 20.0376 1.5 17 1.5H7ZM0.499996 7C0.499996 3.41015 3.41015 0.5 7 0.5H17C20.5898 0.5 23.5 3.41015 23.5 7V17C23.5 20.5899 20.5898 23.5 17 23.5H7C3.41015 23.5 0.499996 20.5899 0.499996 17V7ZM2.5 7C2.5 4.51472 4.51471 2.5 7 2.5H17C19.4853 2.5 21.5 4.51472 21.5 7V17C21.5 19.4853 19.4853 21.5 17 21.5H7C4.51471 21.5 2.5 19.4853 2.5 17V7ZM7 3.5C5.067 3.5 3.5 5.067 3.5 7V17C3.5 18.933 5.067 20.5 7 20.5H17C18.933 20.5 20.5 18.933 20.5 17V7C20.5 5.067 18.933 3.5 17 3.5H7Z" fill="#69B99D"/>
<path fill-rule="evenodd" clip-rule="evenodd" d="M12.4833 8.98924C11.8591 8.89668 11.2217 9.0033 10.6616 9.29392C10.1015 9.58455 9.64725 10.0444 9.36356 10.608C9.07986 11.1717 8.98112 11.8104 9.08137 12.4334C9.18161 13.0564 9.47575 13.6319 9.92194 14.0781C10.3681 14.5243 10.9437 14.8184 11.5667 14.9187C12.1896 15.0189 12.8284 14.9202 13.392 14.6365C13.9557 14.3528 14.4155 13.8986 14.7061 13.3385C14.9968 12.7784 15.1034 12.1409 15.0108 11.5167C14.9164 10.88 14.6197 10.2906 14.1646 9.83547C13.7095 9.38034 13.12 9.08366 12.4833 8.98924ZM9.74041 7.51868C10.6739 7.0343 11.7364 6.85661 12.7767 7.01087C13.8378 7.16823 14.8202 7.6627 15.5788 8.42126C16.3374 9.17981 16.8318 10.1622 16.9892 11.2234C17.1434 12.2637 16.9658 13.3261 16.4814 14.2596C15.997 15.1931 15.2306 15.9501 14.2912 16.423C13.3518 16.8958 12.2872 17.0604 11.2489 16.8933C10.2106 16.7262 9.25138 16.236 8.50773 15.4923C7.76408 14.7487 7.27385 13.7895 7.10677 12.7511C6.93969 11.7128 7.10426 10.6482 7.57709 9.70884C8.04992 8.76944 8.80691 8.00305 9.74041 7.51868Z" fill="#69B99D"/>
<path fill-rule="evenodd" clip-rule="evenodd" d="M12.7033 7.50547C11.7671 7.36663 10.8108 7.52655 9.9707 7.96249C9.13055 8.39843 8.44925 9.08818 8.02371 9.93364C7.59816 10.7791 7.45004 11.7372 7.60042 12.6717C7.75079 13.6062 8.192 14.4695 8.86128 15.1388C9.53057 15.8081 10.3939 16.2493 11.3284 16.3996C12.2628 16.55 13.221 16.4019 14.0664 15.9763C14.9119 15.5508 15.6016 14.8695 16.0376 14.0294C16.4735 13.1892 16.6334 12.233 16.4946 11.2967C16.353 10.3417 15.9079 9.45751 15.2252 8.77481C14.5425 8.09211 13.6584 7.64709 12.7033 7.50547ZM9.51013 7.07487C10.537 6.54205 11.7057 6.34659 12.85 6.51628C14.0173 6.68938 15.0979 7.2333 15.9324 8.06771C16.7668 8.90211 17.3107 9.98276 17.4838 11.15C17.6535 12.2944 17.458 13.4631 16.9252 14.4899C16.3924 15.5168 15.5494 16.3495 14.516 16.8696C13.4827 17.3897 12.3116 17.5707 11.1695 17.3869C10.0273 17.2032 8.97219 16.6639 8.15418 15.8459C7.33616 15.0279 6.79691 13.9727 6.61312 12.8306C6.42933 11.6884 6.61036 10.5174 7.13047 9.48405C7.65058 8.45071 8.48328 7.60768 9.51013 7.07487ZM10.4313 8.85011C11.0847 8.51105 11.8284 8.38667 12.5567 8.49465C13.2995 8.6048 13.9872 8.95093 14.5181 9.48192C15.0491 10.0129 15.3953 10.7006 15.5054 11.4434C15.6134 12.1716 15.489 12.9153 15.1499 13.5688C14.8109 14.2222 14.2744 14.7521 13.6168 15.0831C12.9592 15.4141 12.214 15.5293 11.4872 15.4123C10.7604 15.2954 10.0889 14.9522 9.56839 14.4317C9.04783 13.9111 8.70467 13.2397 8.58772 12.5128C8.47076 11.786 8.58596 11.0408 8.91694 10.3832C9.24792 9.72565 9.77782 9.18917 10.4313 8.85011ZM12.41 9.48383C11.8898 9.4067 11.3586 9.49555 10.8918 9.73774C10.4251 9.97992 10.0466 10.3631 9.81018 10.8328C9.57376 11.3025 9.49148 11.8348 9.57502 12.354C9.65856 12.8731 9.90367 13.3527 10.2755 13.7246C10.6473 14.0964 11.1269 14.3415 11.6461 14.425C12.1653 14.5086 12.6975 14.4263 13.1672 14.1899C13.6369 13.9535 14.0201 13.575 14.2623 13.1082C14.5045 12.6415 14.5934 12.1102 14.5162 11.5901C14.4375 11.0595 14.1903 10.5683 13.811 10.189C13.4318 9.80975 12.9406 9.56251 12.41 9.48383Z" fill="#69B99D"/>
<path fill-rule="evenodd" clip-rule="evenodd" d="M16.5 6.5C16.5 5.94772 16.9477 5.5 17.5 5.5H17.51C18.0623 5.5 18.51 5.94772 18.51 6.5C18.51 7.05228 18.0623 7.5 17.51 7.5H17.5C16.9477 7.5 16.5 7.05228 16.5 6.5Z" fill="#69B99D"/>
<path fill-rule="evenodd" clip-rule="evenodd" d="M17.5 6C17.2239 6 17 6.22386 17 6.5C17 6.77614 17.2239 7 17.5 7H17.51C17.7861 7 18.01 6.77614 18.01 6.5C18.01 6.22386 17.7861 6 17.51 6H17.5ZM16 6.5C16 5.67157 16.6716 5 17.5 5H17.51C18.3384 5 19.01 5.67157 19.01 6.5C19.01 7.32843 18.3384 8 17.51 8H17.5C16.6716 8 16 7.32843 16 6.5Z" fill="#69B99D"/>
</svg>
