<svg width="24" height="24" viewBox="0 0 24 24" fill="none" xmlns="http://www.w3.org/2000/svg">
<path fill-rule="evenodd" clip-rule="evenodd" d="M4 5C3.45228 5 3 5.45228 3 6V18C3 18.5477 3.45228 19 4 19H20C20.5477 19 21 18.5477 21 18V6C21 5.45228 20.5477 5 20 5H4ZM1 6C1 4.34772 2.34772 3 4 3H20C21.6523 3 23 4.34772 23 6V18C23 19.6523 21.6523 21 20 21H4C2.34772 21 1 19.6523 1 18V6Z" fill="#69B99D"/>
<path fill-rule="evenodd" clip-rule="evenodd" d="M4 3.5C2.62386 3.5 1.5 4.62386 1.5 6V18C1.5 19.3761 2.62386 20.5 4 20.5H20C21.3761 20.5 22.5 19.3761 22.5 18V6C22.5 4.62386 21.3761 3.5 20 3.5H4ZM0.5 6C0.5 4.07157 2.07157 2.5 4 2.5H20C21.9284 2.5 23.5 4.07157 23.5 6V18C23.5 19.9284 21.9284 21.5 20 21.5H4C2.07157 21.5 0.5 19.9284 0.5 18V6ZM2.5 6C2.5 5.17614 3.17614 4.5 4 4.5H20C20.8239 4.5 21.5 5.17614 21.5 6V18C21.5 18.8239 20.8239 19.5 20 19.5H4C3.17614 19.5 2.5 18.8239 2.5 18V6ZM4 5.5C3.72843 5.5 3.5 5.72843 3.5 6V18C3.5 18.2716 3.72843 18.5 4 18.5H20C20.2716 18.5 20.5 18.2716 20.5 18V6C20.5 5.72843 20.2716 5.5 20 5.5H4Z" fill="#69B99D"/>
<path fill-rule="evenodd" clip-rule="evenodd" d="M1.18077 5.42656C1.49748 4.97411 2.12101 4.86408 2.57346 5.18079L12 11.7794L21.4265 5.18079C21.879 4.86408 22.5025 4.97411 22.8192 5.42656C23.1359 5.87901 23.0259 6.50254 22.5735 6.81926L12.5735 13.8193C12.2291 14.0603 11.7709 14.0603 11.4265 13.8193L1.42654 6.81926C0.97409 6.50254 0.864056 5.87901 1.18077 5.42656Z" fill="#69B99D"/>
<path fill-rule="evenodd" clip-rule="evenodd" d="M2.28673 5.59039C2.06051 5.43203 1.74874 5.48705 1.59038 5.71328C1.43203 5.9395 1.48704 6.25127 1.71327 6.40962L11.7133 13.4096C11.8854 13.5301 12.1146 13.5301 12.2867 13.4096L22.2867 6.40962C22.513 6.25127 22.568 5.9395 22.4096 5.71327C22.2513 5.48705 21.9395 5.43203 21.7133 5.59039L12.2867 12.189C12.1146 12.3095 11.8854 12.3095 11.7133 12.189L2.28673 5.59039ZM0.771151 5.13981C1.24622 4.46114 2.18152 4.29609 2.86019 4.77116L12 11.169L21.1398 4.77116C21.8185 4.29609 22.7538 4.46114 23.2288 5.13981C23.7039 5.81849 23.5389 6.75378 22.8602 7.22885L12.8602 14.2289C12.3437 14.5904 11.6563 14.5904 11.1398 14.2289L1.13981 7.22885C0.461132 6.75378 0.29608 5.81849 0.771151 5.13981Z" fill="#69B99D"/>
</svg>
