<svg width="24" height="24" viewBox="0 0 24 24" fill="none" xmlns="http://www.w3.org/2000/svg">
<g clip-path="url(#clip0_104_35)">
<path fill-rule="evenodd" clip-rule="evenodd" d="M12 2C9.87827 2 7.84344 2.84285 6.34315 4.34315C4.84285 5.84344 4 7.87827 4 10C4 13.0981 6.01574 16.1043 8.22595 18.4373C9.31061 19.5822 10.3987 20.5195 11.2167 21.1708C11.5211 21.4133 11.787 21.6152 12 21.7726C12.213 21.6152 12.4789 21.4133 12.7833 21.1708C13.6013 20.5195 14.6894 19.5822 15.774 18.4373C17.9843 16.1043 20 13.0981 20 10C20 7.87827 19.1571 5.84344 17.6569 4.34315C16.1566 2.84285 14.1217 2 12 2ZM12 23C11.4453 23.8321 11.445 23.8319 11.4448 23.8317L11.4419 23.8298L11.4352 23.8253L11.4123 23.8098C11.3928 23.7966 11.3651 23.7776 11.3296 23.753C11.2585 23.7038 11.1565 23.6321 11.0278 23.5392C10.7705 23.3534 10.4064 23.0822 9.97082 22.7354C9.10133 22.043 7.93939 21.0428 6.77405 19.8127C4.48426 17.3958 2 13.9019 2 10C2 7.34784 3.05357 4.8043 4.92893 2.92893C6.8043 1.05357 9.34784 0 12 0C14.6522 0 17.1957 1.05357 19.0711 2.92893C20.9464 4.8043 22 7.34784 22 10C22 13.9019 19.5157 17.3958 17.226 19.8127C16.0606 21.0428 14.8987 22.043 14.0292 22.7354C13.5936 23.0822 13.2295 23.3534 12.9722 23.5392C12.8435 23.6321 12.7415 23.7038 12.6704 23.753C12.6349 23.7776 12.6072 23.7966 12.5877 23.8098L12.5648 23.8253L12.5581 23.8298L12.556 23.8312C12.5557 23.8314 12.5547 23.8321 12 23ZM12 23L12.5547 23.8321C12.2188 24.056 11.7807 24.0556 11.4448 23.8317L12 23Z" fill="#69B99D"/>
<path fill-rule="evenodd" clip-rule="evenodd" d="M12 0.5C9.48044 0.5 7.06408 1.50089 5.28249 3.28249C3.50089 5.06408 2.5 7.48044 2.5 10C2.5 13.701 4.86712 17.0729 7.13702 19.4689C8.2822 20.6777 9.42567 21.6621 10.2823 22.3443C10.7068 22.6823 11.0618 22.9468 11.3131 23.1285L11.584 22.7227C11.584 22.7226 11.5839 22.7227 11.584 22.7227C11.5955 22.7054 11.6082 22.6887 11.6216 22.6731C11.7159 22.564 11.8537 22.5 12 22.5C12.0001 22.5 11.9999 22.5 12 22.5C12.0104 22.5 12.0209 22.5003 12.0312 22.501M11.9999 23.9013C11.9712 23.9444 11.9484 23.9785 11.9302 24.0057L11.8683 24.0982L11.856 24.1162L11.8504 24.1241C11.8488 24.1264 11.8431 24.1342 11.8354 24.1438C11.8316 24.1486 11.8239 24.1581 11.8134 24.1695C11.8058 24.1779 11.7817 24.2039 11.7457 24.231C11.7181 24.2518 11.6157 24.3266 11.4603 24.3315C11.3309 24.3355 11.2307 24.2866 11.1893 24.262M11.1893 24.262C11.6839 24.5795 12.3198 24.5794 12.8142 24.2598ZM12.8142 24.2598C12.7765 24.2826 12.6822 24.3306 12.5585 24.3312C12.4104 24.3319 12.3087 24.2677 12.2749 24.2447C12.2354 24.2179 12.2089 24.1914 12.1995 24.1819C12.1874 24.1695 12.1784 24.1591 12.1738 24.1536C12.1645 24.1427 12.1577 24.1336 12.1554 24.1306L12.1483 24.1209C12.1455 24.1169 12.1426 24.1127 12.1398 24.1087L12.1387 24.1094L11.9999 23.9013M12.9493 23.5226L12.9707 23.5547C13.0443 23.665 13.071 23.8001 13.045 23.9301C13.029 24.0103 12.9937 24.0845 12.9432 24.1468C12.9209 24.1744 12.8956 24.1996 12.8677 24.222C12.8674 24.2222 12.8671 24.2224 12.8669 24.2226C12.8597 24.2284 12.8523 24.2339 12.8448 24.2393C12.8443 24.2396 12.8439 24.24 12.8434 24.2403C12.8412 24.2418 12.839 24.2434 12.8368 24.2449C12.8365 24.2451 12.8362 24.2452 12.836 24.2454C12.8353 24.2459 12.8346 24.2464 12.8339 24.2469M12.8325 24.2478C12.8329 24.2475 12.8334 24.2472 12.8339 24.2469L12.8368 24.2449L12.8434 24.2403L12.8686 24.2234C12.8893 24.2094 12.9183 24.1895 12.9551 24.164C13.0287 24.1131 13.1335 24.0395 13.265 23.9445C13.5278 23.7547 13.8983 23.4788 14.3406 23.1265C15.223 22.4239 16.4034 21.408 17.5889 20.1566C19.8986 17.7186 22.5 14.1029 22.5 10C22.5 7.21523 21.3938 4.54451 19.4246 2.57538C17.4555 0.606247 14.7848 -0.5 12 -0.5C9.21523 -0.5 6.54451 0.606247 4.57538 2.57538C2.60625 4.54451 1.5 7.21523 1.5 10C1.5 14.1029 4.1014 17.7186 6.41107 20.1566C7.59658 21.408 8.777 22.4239 9.65936 23.1265C10.1017 23.4788 10.4722 23.7547 10.735 23.9445C10.8665 24.0395 10.9713 24.1131 11.0449 24.164C11.0817 24.1895 11.1107 24.2094 11.1314 24.2234L11.1565 24.2404L11.1632 24.2449M12.8186 23.3265L12.8243 23.3344C12.8565 23.3826 12.8816 23.42 12.9012 23.4492C12.936 23.5011 12.9525 23.5256 12.9601 23.5368C12.9625 23.5402 12.9634 23.5415 12.9634 23.5415C12.9634 23.5415 12.9625 23.5403 12.9612 23.5384L12.9554 23.5306C12.9545 23.5293 12.9523 23.5265 12.9493 23.5226M12.8243 23.3344C12.8243 23.3345 12.8243 23.3344 12.8243 23.3344ZM12.8186 23.3265L12.8243 23.3344C12.7882 23.2804 12.743 23.2128 12.6868 23.1286C12.9381 22.9469 13.2931 22.6823 13.7177 22.3443C14.5743 21.6621 15.7178 20.6777 16.863 19.4689C19.1329 17.0729 21.5 13.701 21.5 10C21.5 7.48044 20.4991 5.06408 18.7175 3.28249C16.9359 1.50089 14.5196 0.5 12 0.5M12.6868 23.1286C12.6158 23.0222 12.527 22.8891 12.416 22.7227ZM12.8142 24.2598C12.8202 24.2559 12.8265 24.2518 12.8325 24.2478C12.8325 24.2478 12.8325 24.2478 12.8325 24.2478M5.98959 3.98959C7.58365 2.39553 9.74566 1.5 12 1.5C14.2543 1.5 16.4163 2.39553 18.0104 3.98959C19.6045 5.58365 20.5 7.74566 20.5 10C20.5 13.299 18.3671 16.4271 16.137 18.7811C15.0322 19.9473 13.9257 20.9004 13.0948 21.562C12.7852 21.8085 12.5145 22.0141 12.2972 22.1747C12.1205 22.3052 11.8795 22.3052 11.7028 22.1747C11.4855 22.0141 11.2148 21.8085 10.9052 21.562C10.0743 20.9004 8.96781 19.9473 7.86298 18.7811C5.63286 16.4271 3.5 13.299 3.5 10C3.5 7.74566 4.39553 5.58365 5.98959 3.98959ZM12 2.5C10.0109 2.5 8.10322 3.29018 6.6967 4.6967C5.29018 6.10322 4.5 8.01088 4.5 10C4.5 12.8971 6.39861 15.7814 8.58893 18.0934C9.65342 19.217 10.723 20.1386 11.5281 20.7797C11.6987 20.9155 11.8569 21.0384 12 21.1474C12.1431 21.0384 12.3013 20.9155 12.4719 20.7797C13.277 20.1386 14.3466 19.217 15.4111 18.0934C17.6014 15.7814 19.5 12.8971 19.5 10C19.5 8.01088 18.7098 6.10322 17.3033 4.6967C15.8968 3.29018 13.9891 2.5 12 2.5Z" fill="#69B99D"/>
<path fill-rule="evenodd" clip-rule="evenodd" d="M17 10C17 12.7614 14.7614 15 12 15C9.23858 15 7 12.7614 7 10C7 7.23858 9.23858 5 12 5C14.7614 5 17 7.23858 17 10ZM15 10C15 11.6569 13.6569 13 12 13C10.3431 13 9 11.6569 9 10C9 8.34315 10.3431 7 12 7C13.6569 7 15 8.34315 15 10Z" fill="#69B99D"/>
<path fill-rule="evenodd" clip-rule="evenodd" d="M18 10C18 13.3137 15.3137 16 12 16C8.68629 16 6 13.3137 6 10C6 6.68629 8.68629 4 12 4C15.3137 4 18 6.68629 18 10ZM12 12C13.1046 12 14 11.1046 14 10C14 8.89543 13.1046 8 12 8C10.8954 8 10 8.89543 10 10C10 11.1046 10.8954 12 12 12ZM12 15C14.7614 15 17 12.7614 17 10C17 7.23858 14.7614 5 12 5C9.23858 5 7 7.23858 7 10C7 12.7614 9.23858 15 12 15ZM12 13C13.6569 13 15 11.6569 15 10C15 8.34315 13.6569 7 12 7C10.3431 7 9 8.34315 9 10C9 11.6569 10.3431 13 12 13Z" fill="#69B99D"/>
</g>
<defs>
<clipPath id="clip0_104_35">
<rect width="24" height="24" fill="white"/>
</clipPath>
</defs>
</svg>
