<svg width="24" height="24" viewBox="0 0 24 24" fill="none" xmlns="http://www.w3.org/2000/svg">
<path fill-rule="evenodd" clip-rule="evenodd" d="M2 12C2 11.4477 2.44772 11 3 11H21C21.5523 11 22 11.4477 22 12C22 12.5523 21.5523 13 21 13H3C2.44772 13 2 12.5523 2 12Z" fill="#69B99D"/>
<path fill-rule="evenodd" clip-rule="evenodd" d="M3 11.5C2.72386 11.5 2.5 11.7239 2.5 12C2.5 12.2761 2.72386 12.5 3 12.5H21C21.2761 12.5 21.5 12.2761 21.5 12C21.5 11.7239 21.2761 11.5 21 11.5H3ZM1.5 12C1.5 11.1716 2.17157 10.5 3 10.5H21C21.8284 10.5 22.5 11.1716 22.5 12C22.5 12.8284 21.8284 13.5 21 13.5H3C2.17157 13.5 1.5 12.8284 1.5 12Z" fill="#69B99D"/>
<path fill-rule="evenodd" clip-rule="evenodd" d="M2 6C2 5.44772 2.44772 5 3 5H21C21.5523 5 22 5.44772 22 6C22 6.55228 21.5523 7 21 7H3C2.44772 7 2 6.55228 2 6Z" fill="#69B99D"/>
<path fill-rule="evenodd" clip-rule="evenodd" d="M3 5.5C2.72386 5.5 2.5 5.72386 2.5 6C2.5 6.27614 2.72386 6.5 3 6.5H21C21.2761 6.5 21.5 6.27614 21.5 6C21.5 5.72386 21.2761 5.5 21 5.5H3ZM1.5 6C1.5 5.17157 2.17157 4.5 3 4.5H21C21.8284 4.5 22.5 5.17157 22.5 6C22.5 6.82843 21.8284 7.5 21 7.5H3C2.17157 7.5 1.5 6.82843 1.5 6Z" fill="#69B99D"/>
<path fill-rule="evenodd" clip-rule="evenodd" d="M2 18C2 17.4477 2.44772 17 3 17H21C21.5523 17 22 17.4477 22 18C22 18.5523 21.5523 19 21 19H3C2.44772 19 2 18.5523 2 18Z" fill="#69B99D"/>
<path fill-rule="evenodd" clip-rule="evenodd" d="M3 17.5C2.72386 17.5 2.5 17.7239 2.5 18C2.5 18.2761 2.72386 18.5 3 18.5H21C21.2761 18.5 21.5 18.2761 21.5 18C21.5 17.7239 21.2761 17.5 21 17.5H3ZM1.5 18C1.5 17.1716 2.17157 16.5 3 16.5H21C21.8284 16.5 22.5 17.1716 22.5 18C22.5 18.8284 21.8284 19.5 21 19.5H3C2.17157 19.5 1.5 18.8284 1.5 18Z" fill="#69B99D"/>
</svg>
