<svg width="24" height="24" viewBox="0 0 24 24" fill="none" xmlns="http://www.w3.org/2000/svg">
<path fill-rule="evenodd" clip-rule="evenodd" d="M7.78172 3.24175C7.59774 3.08353 7.36249 2.9976 7.11984 2.99999L7.11 3.00008V3.00004H4.11062C3.9719 3.00021 3.83473 3.02925 3.70784 3.0853C3.58084 3.14139 3.46692 3.22331 3.37332 3.32585C3.27973 3.42838 3.2085 3.54928 3.16419 3.68085C3.12058 3.81033 3.10397 3.94736 3.11537 4.08347C3.42811 7.01503 4.4263 9.83191 6.02928 12.3063L6.03404 12.3137L6.03401 12.3137C7.49061 14.606 9.43405 16.5494 11.7263 18.006L11.7341 18.011L11.7341 18.011C14.1969 19.6082 16.9997 20.606 19.9176 20.9248C20.0538 20.936 20.1909 20.9192 20.3204 20.8754C20.4523 20.8308 20.5734 20.7592 20.676 20.665C20.7787 20.5709 20.8605 20.4564 20.9163 20.3288C20.972 20.2012 21.0006 20.0633 21 19.9241L21 19.92V16.92C21 16.9118 21.0001 16.9035 21.0003 16.8952C21.0064 16.65 20.9221 16.4111 20.7636 16.224C20.6058 16.0378 20.3854 15.9157 20.1439 15.8807C19.1109 15.7441 18.0966 15.4912 17.1204 15.1269L17.1181 15.1261C16.9392 15.0588 16.7447 15.0443 16.5577 15.0841C16.3715 15.1239 16.2005 15.2159 16.0648 15.3495L14.7971 16.6171C14.4788 16.9355 13.987 17.0018 13.5957 16.7793C10.9357 15.2668 8.73323 13.0643 7.2207 10.4043C6.99819 10.013 7.06458 9.52124 7.38289 9.20293L8.65053 7.93529C8.78411 7.7996 8.87618 7.62858 8.9159 7.44234C8.95578 7.25535 8.94122 7.06086 8.87395 6.8819L8.8731 6.87964C8.50883 5.90343 8.25596 4.88922 8.11931 3.85627C8.08464 3.61744 7.96476 3.39916 7.78172 3.24175ZM7.10557 1.00004C7.83161 0.994199 8.53521 1.25188 9.0858 1.72538C9.63775 2.20006 9.99827 2.85925 10.1002 3.58008L10.1015 3.58927L10.1014 3.58928C10.2181 4.47421 10.4345 5.34309 10.7465 6.17939C10.9479 6.71594 10.9915 7.29897 10.8719 7.8595C10.7523 8.42044 10.4743 8.93534 10.0711 9.34318L10.0671 9.34715L10.0671 9.34714L9.35001 10.0642C10.5259 11.9089 12.0912 13.4742 13.9358 14.65L14.6529 13.9329L14.6569 13.929C15.0647 13.5257 15.5796 13.2478 16.1405 13.1281C16.7011 13.0086 17.2841 13.0521 17.8206 13.2535C18.6569 13.5655 19.5258 13.7819 20.4108 13.8986L20.4197 13.8998L20.4197 13.8998C21.1483 14.0026 21.8138 14.3696 22.2895 14.9311C22.7623 15.4891 23.0148 16.2004 23 16.9312V19.918" fill="#69B99D"/>
<path fill-rule="evenodd" clip-rule="evenodd" d="M7.10155 0.500052C7.9486 0.493242 8.76947 0.793869 9.41182 1.34629C10.0558 1.90009 10.4764 2.66914 10.5952 3.51011L10.5965 3.51931C10.5971 3.52297 10.5975 3.52662 10.598 3.53028C10.6463 3.89507 10.7123 4.25702 10.7957 4.61484L17.5469 12.6503C17.6989 12.6851 17.849 12.7301 17.9961 12.7853C18.7969 13.084 19.6288 13.2912 20.4761 13.4029L20.4851 13.4041C20.4888 13.4046 20.4926 13.4051 20.4964 13.4057C21.3438 13.527 22.1175 13.9546 22.671 14.6079C23.2214 15.2575 23.516 16.0853 23.5 16.9361V19.918C23.5 20.1282 23.3686 20.3159 23.1712 20.3878C22.9737 20.4598 22.7524 20.4006 22.6172 20.2397L21.5 18.91V19.9191L21.5 19.9221M7.88331 2.703L6.72275 1.32167C6.59818 1.17341 6.57043 0.966549 6.6515 0.790693C6.73258 0.614837 6.90791 0.501609 7.10155 0.500052M3.00404 2.98875C2.86365 3.14255 2.75681 3.3239 2.69034 3.52125C2.62493 3.71548 2.60002 3.92102 2.61711 4.12519L2.61819 4.13651C2.93926 7.14608 3.964 10.0379 5.60964 12.5782L5.61105 12.5804C5.61137 12.5809 5.61168 12.5814 5.612 12.5819C7.10797 14.9361 9.10394 16.9321 11.4582 18.428L11.4605 18.4295C11.461 18.4298 11.4615 18.4302 11.462 18.4305M6.4593 12.0507C6.45746 12.0477 6.45559 12.0448 6.45369 12.0419L6.44892 12.0345C4.8898 9.62776 3.91847 6.8882 3.61325 4.03702C3.60832 3.97052 3.61674 3.90368 3.63804 3.84044C3.66019 3.77466 3.6958 3.71421 3.7426 3.66294C3.7894 3.61167 3.84636 3.57071 3.90986 3.54267C3.97321 3.51468 4.04169 3.50017 4.11094 3.50004H7.10302C7.10698 3.50009 7.11095 3.5001 7.11492 3.50006L7.12476 3.49996C7.24608 3.49877 7.36371 3.54173 7.4557 3.62085C7.54656 3.69898 7.60629 3.80712 7.62411 3.92552C7.76582 4.99452 8.02765 6.04413 8.40465 7.05444L8.4057 7.05724C8.43934 7.14672 8.44684 7.24456 8.4269 7.33805C8.40715 7.43065 8.36152 7.51572 8.29534 7.58338L7.02934 8.84938C6.55187 9.32685 6.45229 10.0645 6.78606 10.6515C8.34307 13.3897 10.6103 15.657 13.3486 17.214C13.9355 17.5477 14.6732 17.4482 15.1507 16.9707" fill="#69B99D"/>
</svg>
