<svg width="80" height="80" viewBox="0 0 80 80" fill="none" xmlns="http://www.w3.org/2000/svg">
<path d="M40 44.9888C41.5166 44.9892 42.8838 44.0757 43.4649 42.6743C44.0454 41.2734 43.7251 39.6606 42.6524 38.5879C41.168 37.1729 38.834 37.1729 37.3496 38.5879C36.2784 39.6597 35.9571 41.2725 36.5376 42.6733C37.1172 44.0747 38.4839 44.9883 40 44.9888ZM39.1162 40.355C39.6045 39.8672 40.3955 39.8672 40.8838 40.355C41.3716 40.8433 41.3716 41.6348 40.8838 42.1226C40.3897 42.5957 39.6104 42.5957 39.1162 42.1226C38.6284 41.6348 38.6284 40.8433 39.1162 40.355Z" fill="#69B99D"/>
<path fill-rule="evenodd" clip-rule="evenodd" d="M36.5376 42.6733C35.9571 41.2725 36.2784 39.6597 37.3496 38.5879C38.834 37.1729 41.168 37.1729 42.6524 38.5879C43.7251 39.6606 44.0454 41.2734 43.4649 42.6743C42.8838 44.0757 41.5166 44.9892 40 44.9888C38.4839 44.9883 37.1172 44.0747 36.5376 42.6733ZM42.5411 42.2913C42.9652 41.2678 42.7335 40.0901 41.9537 39.3034C40.8581 38.2677 39.144 38.2677 38.0484 39.3034C37.2696 40.0893 37.0374 41.2672 37.4614 42.2905L37.4617 42.2911C37.8866 43.3185 38.8886 43.9884 40.0003 43.9888C41.112 43.9891 42.1147 43.3195 42.541 42.2915M38.4088 39.6482L38.4095 39.6475C39.2882 38.7697 40.7118 38.7697 41.5906 39.6475L41.5913 39.6482C42.4689 40.5268 42.4694 41.9511 41.5909 42.8297L41.5832 42.8373L41.5754 42.8448C40.6945 43.6883 39.3055 43.6883 38.4246 42.8448L38.4168 42.8373L38.4091 42.8297C37.5306 41.9511 37.5311 40.5268 38.4088 39.6482ZM39.1162 42.1226C38.6284 41.6348 38.6284 40.8433 39.1162 40.355C39.6045 39.8672 40.3955 39.8672 40.8838 40.355C41.3716 40.8433 41.3716 41.6348 40.8838 42.1226C40.3897 42.5957 39.6104 42.5957 39.1162 42.1226Z" fill="#69B99D"/>
<path d="M55 27.4888C55.3315 27.4888 55.6494 27.3569 55.8838 27.1226L67.1338 15.8725C67.6075 15.3823 67.6006 14.6025 67.1187 14.1201C66.6363 13.6382 65.857 13.6313 65.3662 14.105L54.1162 25.355C53.7593 25.7129 53.6518 26.2505 53.8452 26.7173C54.0386 27.1841 54.4946 27.4888 55 27.4888Z" fill="#69B99D"/>
<path fill-rule="evenodd" clip-rule="evenodd" d="M55 26.4888C55.066 26.4888 55.1296 26.4625 55.1767 26.4155L66.4183 15.1739C66.5088 15.0762 66.5069 14.923 66.4116 14.8272C66.316 14.7321 66.1631 14.7297 66.0647 14.8207L54.8243 26.0611C54.8242 26.0612 54.8241 26.0613 54.824 26.0614C54.7515 26.1343 54.7309 26.2425 54.7691 26.3346C54.8076 26.4276 54.899 26.4888 55 26.4888ZM54.1162 25.355L65.3662 14.105C65.857 13.6313 66.6363 13.6382 67.1187 14.1201C67.6006 14.6025 67.6075 15.3823 67.1338 15.8725L55.8838 27.1226C55.6494 27.3569 55.3315 27.4888 55 27.4888C54.4946 27.4888 54.0386 27.1841 53.8452 26.7173C53.6518 26.2505 53.7593 25.7129 54.1162 25.355Z" fill="#69B99D"/>
<path d="M48.75 33.7388C49.0815 33.7388 49.3994 33.6069 49.6338 33.3725L52.1338 30.8725C52.6074 30.3823 52.6006 29.6025 52.1186 29.1201C51.6362 28.6382 50.8569 28.6313 50.3662 29.105L47.8662 31.605C47.5093 31.9629 47.4018 32.5005 47.5952 32.9673C47.7886 33.4341 48.2446 33.7388 48.75 33.7388Z" fill="#69B99D"/>
<path fill-rule="evenodd" clip-rule="evenodd" d="M48.75 32.7388C48.816 32.7388 48.8796 32.7125 48.9267 32.6654L51.4183 30.1738C51.5087 30.0762 51.5068 29.923 51.4115 29.8272C51.316 29.7321 51.1631 29.7297 51.0647 29.8207L48.5743 32.3111C48.5742 32.3112 48.5741 32.3113 48.574 32.3114C48.5015 32.3843 48.4809 32.4925 48.5191 32.5846C48.5576 32.6776 48.649 32.7388 48.75 32.7388ZM47.8662 31.605L50.3662 29.105C50.8569 28.6313 51.6362 28.6382 52.1186 29.1201C52.6006 29.6025 52.6074 30.3823 52.1338 30.8725L49.6338 33.3725C49.3994 33.6069 49.0815 33.7388 48.75 33.7388C48.2446 33.7388 47.7886 33.4341 47.5952 32.9673C47.4018 32.5005 47.5093 31.9629 47.8662 31.605Z" fill="#69B99D"/>
<path d="M16.25 62.4888C13.4888 62.4888 11.25 64.7275 11.25 67.4888C11.25 70.2505 13.4888 72.4888 16.25 72.4888C19.0112 72.4888 21.25 70.2505 21.25 67.4888C21.25 64.7275 19.0112 62.4888 16.25 62.4888ZM16.25 69.9888C14.8691 69.9888 13.75 68.8701 13.75 67.4888C13.75 66.1084 14.8691 64.9888 16.25 64.9888C17.6309 64.9888 18.75 66.1084 18.75 67.4888C18.75 68.8701 17.6309 69.9888 16.25 69.9888Z" fill="#69B99D"/>
<path fill-rule="evenodd" clip-rule="evenodd" d="M16.25 63.4888C14.0411 63.4888 12.25 65.2798 12.25 67.4888C12.25 69.6981 14.041 71.4888 16.25 71.4888C18.459 71.4888 20.25 69.6981 20.25 67.4888C20.25 65.2798 18.4589 63.4888 16.25 63.4888ZM16.25 70.9888C14.317 70.9888 12.75 69.4225 12.75 67.4888C12.75 65.5562 14.3167 63.9888 16.25 63.9888C18.1833 63.9888 19.75 65.5562 19.75 67.4888C19.75 69.4225 18.183 70.9888 16.25 70.9888ZM11.25 67.4888C11.25 64.7275 13.4888 62.4888 16.25 62.4888C19.0112 62.4888 21.25 64.7275 21.25 67.4888C21.25 70.2505 19.0112 72.4888 16.25 72.4888C13.4888 72.4888 11.25 70.2505 11.25 67.4888ZM13.75 67.4888C13.75 68.8701 14.8691 69.9888 16.25 69.9888C17.6309 69.9888 18.75 68.8701 18.75 67.4888C18.75 66.1084 17.6309 64.9888 16.25 64.9888C14.8691 64.9888 13.75 66.1084 13.75 67.4888Z" fill="#69B99D"/>
<path d="M63.7964 72.4888C66.5576 72.4888 68.7964 70.2505 68.7964 67.4888C68.7964 64.7275 66.5576 62.4888 63.7964 62.4888C61.0347 62.4888 58.7964 64.7275 58.7964 67.4888C58.7964 70.2505 61.0347 72.4888 63.7964 72.4888ZM63.7964 64.9888C65.1768 64.9888 66.2964 66.1084 66.2964 67.4888C66.2964 68.8701 65.1768 69.9888 63.7964 69.9888C62.416 69.9888 61.2964 68.8701 61.2964 67.4888C61.2964 66.1084 62.416 64.9888 63.7964 64.9888Z" fill="#69B99D"/>
<path fill-rule="evenodd" clip-rule="evenodd" d="M63.7964 71.4888C66.0054 71.4888 67.7964 69.6981 67.7964 67.4888C67.7964 65.2798 66.0053 63.4888 63.7964 63.4888C61.587 63.4888 59.7964 65.2798 59.7964 67.4888C59.7964 69.6982 61.587 71.4888 63.7964 71.4888ZM63.7964 63.9888C65.729 63.9888 67.2964 65.5561 67.2964 67.4888C67.2964 69.4227 65.7288 70.9888 63.7964 70.9888C61.864 70.9888 60.2964 69.4227 60.2964 67.4888C60.2964 65.5561 61.8637 63.9888 63.7964 63.9888ZM68.7964 67.4888C68.7964 70.2505 66.5576 72.4888 63.7964 72.4888C61.0347 72.4888 58.7964 70.2505 58.7964 67.4888C58.7964 64.7275 61.0347 62.4888 63.7964 62.4888C66.5576 62.4888 68.7964 64.7275 68.7964 67.4888ZM66.2964 67.4888C66.2964 66.1084 65.1768 64.9888 63.7964 64.9888C62.416 64.9888 61.2964 66.1084 61.2964 67.4888C61.2964 68.8701 62.416 69.9888 63.7964 69.9888C65.1768 69.9888 66.2964 68.8701 66.2964 67.4888Z" fill="#69B99D"/>
<path d="M76.25 46.2388C73.4888 46.2388 71.25 44.0005 71.25 41.2388C71.25 40.5483 70.6904 39.9888 70 39.9888C69.3096 39.9888 68.75 40.5483 68.75 41.2388C68.75 44.0005 66.5112 46.2388 63.75 46.2388C63.0596 46.2388 62.5 46.7983 62.5 47.4888C62.5 48.1792 63.0596 48.7388 63.75 48.7388C66.5112 48.7388 68.75 50.9775 68.75 53.7388C68.75 54.4292 69.3096 54.9888 70 54.9888C70.6904 54.9888 71.25 54.4292 71.25 53.7388C71.25 50.9775 73.4888 48.7388 76.25 48.7388C76.9404 48.7388 77.5 48.1792 77.5 47.4888C77.5 46.7983 76.9404 46.2388 76.25 46.2388ZM70 49.6021C69.4434 48.7637 68.7251 48.0454 67.8877 47.4888C68.7251 46.9326 69.4434 46.2144 70 45.3765C70.5566 46.2144 71.2749 46.9326 72.1123 47.4888C71.2749 48.0454 70.5566 48.7637 70 49.6021Z" fill="#69B99D"/>
<path fill-rule="evenodd" clip-rule="evenodd" d="M70 51.4099L69.1669 50.1552C68.684 49.4278 68.0608 48.8046 67.3341 48.3216L66.0807 47.4884L67.3345 46.6557C68.0609 46.1733 68.684 45.5502 69.1671 44.8231L70 43.5693L70.8329 44.8231C71.316 45.5502 71.9391 46.1733 72.6655 46.6557L73.9193 47.4884L72.6659 48.3216C71.9392 48.8046 71.316 49.4278 70.8331 50.1552L70 51.4099ZM76.25 47.2388C72.9365 47.2388 70.25 44.5528 70.25 41.2388C70.25 41.1006 70.1381 40.9888 70 40.9888C69.8619 40.9888 69.75 41.1006 69.75 41.2388C69.75 44.5528 67.0635 47.2388 63.75 47.2388C63.6119 47.2388 63.5 47.3506 63.5 47.4888C63.5 47.6269 63.6119 47.7388 63.75 47.7388C67.0635 47.7388 69.75 50.4253 69.75 53.7388C69.75 53.8769 69.8619 53.9888 70 53.9888C70.1381 53.9888 70.25 53.8769 70.25 53.7388C70.25 50.4253 72.9365 47.7388 76.25 47.7388C76.3881 47.7388 76.5 47.6269 76.5 47.4888C76.5 47.3506 76.3881 47.2388 76.25 47.2388ZM69.3601 48.7701C69.5919 49.0316 69.8058 49.3095 70 49.6021C70.1942 49.3095 70.4081 49.0316 70.6399 48.7701C70.8405 48.5437 71.0546 48.3296 71.2808 48.1289C71.5423 47.897 71.82 47.6831 72.1123 47.4888C71.82 47.2946 71.5421 47.0807 71.2807 46.8488C71.0545 46.6483 70.8406 46.4344 70.64 46.2081C70.4082 45.9467 70.1943 45.6689 70 45.3765C69.8057 45.6689 69.5918 45.9467 69.36 46.2081C69.1594 46.4344 68.9455 46.6483 68.7193 46.8488C68.4579 47.0807 68.18 47.2946 67.8877 47.4888C68.18 47.6831 68.4577 47.897 68.7192 48.1289C68.9454 48.3296 69.1595 48.5437 69.3601 48.7701ZM71.25 41.2388C71.25 44.0005 73.4888 46.2388 76.25 46.2388C76.9404 46.2388 77.5 46.7983 77.5 47.4888C77.5 48.1792 76.9404 48.7388 76.25 48.7388C73.4888 48.7388 71.25 50.9775 71.25 53.7388C71.25 54.4292 70.6904 54.9888 70 54.9888C69.3096 54.9888 68.75 54.4292 68.75 53.7388C68.75 50.9775 66.5112 48.7388 63.75 48.7388C63.0596 48.7388 62.5 48.1792 62.5 47.4888C62.5 46.7983 63.0596 46.2388 63.75 46.2388C66.5112 46.2388 68.75 44.0005 68.75 41.2388C68.75 40.5483 69.3096 39.9888 70 39.9888C70.6904 39.9888 71.25 40.5483 71.25 41.2388Z" fill="#69B99D"/>
<path d="M3.75 33.7388C6.51123 33.7388 8.75 35.9775 8.75 38.7388C8.75 39.4292 9.30957 39.9888 10 39.9888C10.6904 39.9888 11.25 39.4292 11.25 38.7388C11.25 35.9775 13.4888 33.7388 16.25 33.7388C16.9404 33.7388 17.5 33.1792 17.5 32.4888C17.5 31.7983 16.9404 31.2388 16.25 31.2388C13.4888 31.2388 11.25 29.0005 11.25 26.2388C11.25 25.5483 10.6904 24.9888 10 24.9888C9.30957 24.9888 8.75 25.5483 8.75 26.2388C8.75 29.0005 6.51123 31.2388 3.75 31.2388C3.05957 31.2388 2.5 31.7983 2.5 32.4888C2.5 33.1792 3.05957 33.7388 3.75 33.7388ZM10 30.3765C10.5566 31.2144 11.2749 31.9326 12.1123 32.4888C11.2749 33.0454 10.5566 33.7637 10 34.6021C9.44336 33.7637 8.7251 33.0454 7.8877 32.4888C8.7251 31.9326 9.44336 31.2144 10 30.3765Z" fill="#69B99D"/>
<path fill-rule="evenodd" clip-rule="evenodd" d="M10 28.5693L10.8329 29.8231C11.316 30.5502 11.9391 31.1733 12.6655 31.6557L13.9193 32.4884L12.6659 33.3216C11.9392 33.8046 11.316 34.4278 10.8331 35.1552L10 36.4099L9.16691 35.1552C8.68397 34.4278 8.06077 33.8046 7.33412 33.3216L6.08072 32.4884L7.33445 31.6557C8.06085 31.1733 8.68405 30.5502 9.16705 29.8231L10 28.5693ZM3.75 32.7388C7.06352 32.7388 9.75 35.4253 9.75 38.7388C9.75 38.8769 9.86186 38.9888 10 38.9888C10.1381 38.9888 10.25 38.8769 10.25 38.7388C10.25 35.4253 12.9365 32.7388 16.25 32.7388C16.3881 32.7388 16.5 32.6269 16.5 32.4888C16.5 32.3506 16.3881 32.2388 16.25 32.2388C12.9365 32.2388 10.25 29.5528 10.25 26.2388C10.25 26.1006 10.1381 25.9888 10 25.9888C9.86186 25.9888 9.75 26.1006 9.75 26.2388C9.75 29.5528 7.06345 32.2388 3.75 32.2388C3.61186 32.2388 3.5 32.3506 3.5 32.4888C3.5 32.6269 3.61186 32.7388 3.75 32.7388ZM10 30.3765C9.80575 30.6689 9.59181 30.9467 9.36 31.2082C9.15944 31.4344 8.9455 31.6483 8.71934 31.8488C8.45785 32.0807 8.18003 32.2946 7.8877 32.4888C8.17998 32.6831 8.45775 32.897 8.71919 33.1289C8.94544 33.3296 9.15947 33.5437 9.3601 33.7701C9.59187 34.0316 9.80578 34.3095 10 34.6021C10.1942 34.3095 10.4081 34.0316 10.6399 33.7701C10.8405 33.5437 11.0546 33.3296 11.2808 33.1289C11.5423 32.897 11.82 32.6831 12.1123 32.4888C11.82 32.2946 11.5421 32.0807 11.2807 31.8488C11.0545 31.6483 10.8406 31.4344 10.64 31.2082C10.4082 30.9467 10.1943 30.6689 10 30.3765ZM8.75 38.7388C8.75 35.9775 6.51123 33.7388 3.75 33.7388C3.05957 33.7388 2.5 33.1792 2.5 32.4888C2.5 31.7983 3.05957 31.2388 3.75 31.2388C6.51123 31.2388 8.75 29.0005 8.75 26.2388C8.75 25.5483 9.30957 24.9888 10 24.9888C10.6904 24.9888 11.25 25.5483 11.25 26.2388C11.25 29.0005 13.4888 31.2388 16.25 31.2388C16.9404 31.2388 17.5 31.7983 17.5 32.4888C17.5 33.1792 16.9404 33.7388 16.25 33.7388C13.4888 33.7388 11.25 35.9775 11.25 38.7388C11.25 39.4292 10.6904 39.9888 10 39.9888C9.30957 39.9888 8.75 39.4292 8.75 38.7388Z" fill="#69B99D"/>
<path d="M32.75 45.4741L20 58.2217C18.8096 57.7354 17.5361 57.4868 16.25 57.4888C10.7271 57.4888 6.25 61.9663 6.25 67.4888C6.25 73.0117 10.7271 77.4888 16.25 77.4888C21.7729 77.4888 26.25 73.0117 26.25 67.4888C26.249 66.8911 26.1924 66.2945 26.083 65.7066L40.0239 52.0816L53.9639 65.7066C53.8535 66.2945 53.7979 66.8911 53.7964 67.4888C53.7964 73.0117 58.2734 77.4888 63.7964 77.4888C69.3188 77.4888 73.7964 73.0117 73.7964 67.4888C73.7964 61.9663 69.3188 57.4888 63.7964 57.4888C62.5103 57.4864 61.2363 57.7354 60.0464 58.2217L47.3115 45.4893L70.9761 18.27C76.4839 11.3853 71.0947 3.12795 71.04 3.04544C70.8369 2.74075 70.5103 2.54055 70.1465 2.49807C69.7812 2.45608 69.4165 2.57424 69.146 2.82278L40.0347 29.8643L10.9199 2.82278C10.6499 2.57424 10.2852 2.45608 9.91992 2.49807C9.55615 2.54055 9.22949 2.74075 9.02637 3.04544C8.9707 3.12795 3.58398 11.3853 9.12354 18.3091L32.75 45.4741ZM23.8384 64.4053C23.5186 64.7183 23.3906 65.1782 23.502 65.6114C24.3057 68.7173 23.0444 71.9898 20.3652 73.7534C17.6855 75.5176 14.1816 75.3819 11.646 73.4165C9.11084 71.4512 8.10596 68.0909 9.14648 65.0567C10.1875 62.022 13.042 59.9854 16.25 59.9888C17.4487 59.9878 18.6299 60.2764 19.6924 60.8316C20.1763 61.0821 20.7661 60.9903 21.1514 60.6055L34.3872 47.3706C35.1274 48.0679 35.9824 48.6328 36.915 49.0391L38.2349 50.3301L23.8384 64.4053ZM60.3555 60.8316C61.417 60.2764 62.5977 59.9878 63.7964 59.9888C67.0293 59.9693 69.9165 62.0117 70.9736 65.0674C72.0308 68.1236 71.0229 71.5127 68.4678 73.4951C65.9131 75.4771 62.3799 75.6114 59.6821 73.8281C56.9849 72.0449 55.7231 68.7412 56.5459 65.6138C56.6582 65.1812 56.5303 64.7207 56.21 64.4077L41.0508 49.5879C42.7725 49.3238 44.3711 48.5386 45.6323 47.3379L58.8955 60.6006C59.2793 60.9878 59.8701 61.0816 60.3555 60.8316ZM69.6724 5.74954C70.7251 7.98831 72.2471 12.6792 69.0576 16.669L44.1162 45.355C41.8516 47.6377 38.166 47.6524 35.8838 45.3882C33.6016 43.1236 33.5869 39.4375 35.8516 37.1558L69.6724 5.74954ZM10.3901 5.73879L38.1978 31.5655L34.1162 35.355C32.7393 36.69 31.8574 38.4532 31.6162 40.355L11.0449 16.7075C7.79834 12.6504 9.32617 7.97512 10.3901 5.73879Z" fill="#69B99D"/>
<path fill-rule="evenodd" clip-rule="evenodd" d="M34.1167 45.5218L20.2371 59.3988L19.6218 59.1474C18.5522 58.7105 17.4078 58.487 16.2515 58.4888H16.25C11.2794 58.4888 7.25 62.5186 7.25 67.4888C7.25 72.4595 11.2793 76.4888 16.25 76.4888C21.2205 76.4888 25.2498 72.4597 25.25 67.4893C25.2491 66.954 25.1983 66.4185 25.0999 65.8895L25.0022 65.3646L40.0239 50.6833L55.0454 65.3653L54.9467 65.8911C54.8478 66.4178 54.7978 66.953 54.7964 67.4897C54.7969 72.46 58.826 76.4888 63.7964 76.4888C68.7666 76.4888 72.7964 72.4594 72.7964 67.4888C72.7964 62.5186 68.7666 58.4888 63.7964 58.4888H63.7945C62.6387 58.4866 61.4939 58.7104 60.4247 59.1474L59.8094 59.3989L45.9449 45.537L70.2077 17.6297C72.6967 14.5072 72.7418 11.0753 72.1188 8.32806C71.4967 5.58507 70.2252 3.62675 70.2067 3.59815C70.1663 3.53881 70.1023 3.49996 70.0314 3.49142C69.9545 3.48284 69.8795 3.50749 69.8238 3.55802C69.8234 3.5584 69.823 3.55878 69.8226 3.55916L40.0347 31.2291L10.2427 3.55855C10.2423 3.55823 10.242 3.55791 10.2417 3.5576C10.1868 3.50768 10.1122 3.48282 10.035 3.49142C9.9633 3.50006 9.89872 3.53968 9.85842 3.60014L9.85542 3.60463C9.85542 3.60464 9.85543 3.60462 9.85542 3.60463C9.8553 3.60482 9.85496 3.60533 9.85447 3.60609C9.81459 3.6681 8.56375 5.6126 7.95238 8.33119C7.33381 11.0818 7.38561 14.5249 9.89183 17.6687L34.1167 45.5218ZM9.12354 18.3091C3.58398 11.3853 8.9707 3.12795 9.02637 3.04544C9.22949 2.74075 9.55615 2.54055 9.91992 2.49807C10.2852 2.45608 10.6499 2.57424 10.9199 2.82278L40.0347 29.8643L69.146 2.82278C69.4165 2.57424 69.7812 2.45608 70.1465 2.49807C70.5103 2.54055 70.8369 2.74075 71.04 3.04544C71.0947 3.12795 76.4839 11.3853 70.9761 18.27L47.3115 45.4893L60.0464 58.2217C61.2363 57.7354 62.5103 57.4864 63.7964 57.4888C69.3188 57.4888 73.7964 61.9663 73.7964 67.4888C73.7964 73.0117 69.3188 77.4888 63.7964 77.4888C58.2734 77.4888 53.7964 73.0117 53.7964 67.4888C53.7979 66.8911 53.8535 66.2945 53.9639 65.7066L40.0239 52.0816L26.083 65.7066C26.1924 66.2945 26.249 66.8911 26.25 67.4888C26.25 73.0117 21.7729 77.4888 16.25 77.4888C10.7271 77.4888 6.25 73.0117 6.25 67.4888C6.25 61.9663 10.7271 57.4888 16.25 57.4888C17.5361 57.4868 18.8096 57.7354 20 58.2217L32.75 45.4741L9.12354 18.3091ZM23.8384 64.4053C23.5186 64.7183 23.3906 65.1782 23.502 65.6114C24.3057 68.7173 23.0444 71.9898 20.3652 73.7534C17.6855 75.5176 14.1816 75.3819 11.646 73.4165C9.11084 71.4512 8.10596 68.0909 9.14648 65.0567C10.1875 62.022 13.042 59.9854 16.25 59.9888C17.4487 59.9878 18.6299 60.2764 19.6924 60.8316C20.1763 61.0821 20.7661 60.9903 21.1514 60.6055L34.3872 47.3706C35.1274 48.0679 35.9824 48.6328 36.915 49.0391L38.2349 50.3301L23.8384 64.4053ZM20.4447 59.8979L34.3664 45.9773L35.0729 46.6427C35.7296 47.2613 36.4878 47.7622 37.3144 48.1223L37.4829 48.1957L39.6651 50.3303L24.5378 65.12M24.4705 65.3624C24.448 65.275 24.4743 65.1824 24.5378 65.12ZM58.8955 60.6006C59.2793 60.9878 59.8701 61.0816 60.3555 60.8316C61.417 60.2764 62.5977 59.9878 63.7964 59.9888C67.0293 59.9693 69.9165 62.0117 70.9736 65.0674C72.0308 68.1236 71.0229 71.5127 68.4678 73.4951C65.9131 75.4771 62.3799 75.6114 59.6821 73.8281C56.9849 72.0449 55.7231 68.7412 56.5459 65.6138C56.6582 65.1812 56.5303 64.7207 56.21 64.4077L41.0508 49.5879C41.4454 49.5274 41.8336 49.4394 42.2128 49.3254C43.4876 48.942 44.6602 48.2634 45.6323 47.3379L58.8955 60.6006ZM63.794 58.9888C62.4367 58.9882 61.0992 59.3149 59.8958 59.9435ZM63.794 58.9888C67.4538 58.9682 70.7218 61.2809 71.9187 64.7405C73.1159 68.2017 71.9745 72.0402 69.0808 74.2852L68.4678 73.4951M69.9949 4.08539L70.5773 5.32401C71.6591 7.62457 73.4132 12.8219 69.8387 17.2934L69.8258 17.3095L44.8493 46.036L44.8261 46.0593C42.1726 48.734 37.8539 48.7513 35.1795 46.0981C32.5054 43.4446 32.4879 39.1253 35.1418 36.4513L35.1562 36.4369L69.9949 4.08539ZM10.0724 4.07895L39.6673 31.5656L34.8047 36.0803C33.595 37.2565 32.8204 38.8079 32.6083 40.4808L32.3273 42.6961L10.277 17.3484L10.2641 17.3323C6.63377 12.7956 8.38949 7.61628 9.48713 5.30918L10.0724 4.07895ZM34.1162 35.355L38.1978 31.5655L10.3901 5.73879C10.2538 6.02546 10.1097 6.3522 9.96915 6.71257C9.01293 9.16357 8.2145 13.1705 11.0449 16.7075L31.6162 40.355C31.6694 39.9357 31.7537 39.5231 31.8676 39.1204C32.2703 37.6965 33.0428 36.3956 34.1162 35.355ZM69.6724 5.74954L35.8516 37.1558C33.5869 39.4375 33.6016 43.1236 35.8838 45.3882C38.166 47.6524 41.8516 47.6377 44.1162 45.355L69.0576 16.669C71.8376 13.1914 71.0382 9.18118 70.09 6.72634C69.9504 6.36477 69.8075 6.03695 69.6724 5.74954Z" fill="#69B99D"/>
</svg>
