<svg width="24" height="24" viewBox="0 0 24 24" fill="none" xmlns="http://www.w3.org/2000/svg">
<path d="M16.6 14C16.4 13.9 15.1 13.3 14.9 13.2C14.7 13.1 14.5 13.1 14.3 13.3C14.1 13.5 13.7 14.1 13.5 14.3C13.4 14.5 13.2 14.5 13 14.4C12.3 14.1 11.6 13.7 11 13.2C10.5 12.7 10 12.1 9.6 11.5C9.5 11.3 9.6 11.1 9.7 11C9.8 10.9 9.9 10.7 10.1 10.6C10.2 10.5 10.3 10.3 10.3 10.2C10.4 10.1 10.4 9.89998 10.3 9.79998C10.2 9.69998 9.7 8.49998 9.5 7.99998C9.4 7.29998 9.2 7.29998 9 7.29998C8.9 7.29998 8.7 7.29998 8.5 7.29998C8.3 7.29998 8 7.49998 7.9 7.59998C7.3 8.19998 7 8.89998 7 9.69998C7.1 10.6 7.4 11.5 8 12.3C9.1 13.9 10.5 15.2 12.2 16C12.7 16.2 13.1 16.4 13.6 16.5C14.1 16.7 14.6 16.7 15.2 16.6C15.9 16.5 16.5 16 16.9 15.4C17.1 15 17.1 14.6 17 14.2C17 14.2 16.8 14.1 16.6 14ZM19.1 4.89998C15.2 0.999976 8.9 0.999976 5 4.89998C1.8 8.09998 1.2 13 3.4 16.9L2 22L7.3 20.6C8.8 21.4 10.4 21.8 12 21.8C17.5 21.8 21.9 17.4 21.9 11.9C22 9.29997 20.9 6.79998 19.1 4.89998ZM16.4 18.9C15.1 19.7 13.6 20.2 12 20.2C10.5 20.2 9.1 19.8 7.8 19.1L7.5 18.9L4.4 19.7L5.2 16.7L5 16.4C2.6 12.4 3.8 7.39998 7.7 4.89998C11.6 2.39998 16.6 3.69998 19 7.49998C21.4 11.4 20.3 16.5 16.4 18.9Z" fill="#69B99D"/>
<path fill-rule="evenodd" clip-rule="evenodd" d="M15.2 16.6C14.6 16.7 14.1 16.7 13.6 16.5C13.214 16.4228 12.8876 16.286 12.5288 16.1356C12.4228 16.0912 12.314 16.0456 12.2 16C10.5 15.2 9.1 13.9 8 12.3C7.4 11.5 7.1 10.6 7 9.69998C7 8.89998 7.3 8.19998 7.9 7.59998C8 7.49998 8.3 7.29998 8.5 7.29998H9C9.2 7.29998 9.4 7.29998 9.5 7.99998C9.7 8.49998 10.2 9.69998 10.3 9.79998C10.4 9.89998 10.4 10.1 10.3 10.2C10.3 10.3 10.2 10.5 10.1 10.6C9.96056 10.6697 9.86972 10.788 9.79361 10.8872C9.76055 10.9303 9.73028 10.9697 9.7 11C9.6 11.1 9.5 11.3 9.6 11.5C10 12.1 10.5 12.7 11 13.2C11.6 13.7 12.3 14.1 13 14.4C13.2 14.5 13.4 14.5 13.5 14.3C13.6 14.2 13.75 14 13.9 13.8C14.05 13.6 14.2 13.4 14.3 13.3C14.5 13.1 14.7 13.1 14.9 13.2C15 13.25 15.375 13.425 15.75 13.6C16.125 13.775 16.5 13.95 16.6 14L17 14.2C17.1 14.6 17.1 15 16.9 15.4C16.5 16 15.9 16.5 15.2 16.6ZM16.0474 14.8436C16.0418 14.8646 16.035 14.8849 16.0272 14.9046C15.7274 15.3283 15.3647 15.5663 15.0586 15.61L15.0471 15.6117L15.0356 15.6136C14.5253 15.6986 14.2325 15.676 13.9714 15.5715L13.8861 15.5374L13.7961 15.5194C13.6899 15.4981 13.5935 15.4723 13.497 15.4409C13.8327 15.3746 14.113 15.1811 14.2997 14.9082C14.3616 14.8385 14.4196 14.7663 14.4676 14.7053C14.5433 14.6089 14.6239 14.5014 14.6963 14.4049L14.7 14.4C14.7366 14.3511 14.7713 14.305 14.8041 14.2617C14.9514 14.3308 15.1246 14.4117 15.2934 14.4904L15.3271 14.5062C15.6197 14.6427 15.8947 14.7711 16.0474 14.8436ZM8.55503 11.3323C8.55427 10.8747 8.79345 10.5011 8.9745 10.3117C8.97709 10.3084 8.98065 10.3039 8.98528 10.2979C8.98771 10.2948 8.99092 10.2906 8.9948 10.2855C9.01544 10.2586 9.05484 10.2071 9.09428 10.1598C9.13563 10.1102 9.19058 10.0478 9.26049 9.98185C9.25975 9.9803 9.25901 9.97874 9.25827 9.97719C9.18658 9.82681 9.10294 9.63911 9.01994 9.44758C8.85311 9.06258 8.67446 8.62872 8.57152 8.37137L8.5636 8.35156C8.18347 8.74907 8.01224 9.16974 8.00064 9.64735C8.073 10.238 8.24713 10.8092 8.55503 11.3323ZM9.03014 8.30039C9.03009 8.3004 9.02895 8.30037 9.02685 8.30026ZM8.46852 7.93841C8.46796 7.93688 8.46789 7.93682 8.46852 7.93841ZM3.4 16.9C1.2 13 1.8 8.09998 5 4.89998C8.9 0.999976 15.2 0.999976 19.1 4.89998C20.9 6.79998 22 9.29997 21.9 11.9C21.9 17.4 17.5 21.8 12 21.8C10.4 21.8 8.8 21.4 7.3 20.6L2 22L3.4 16.9ZM7.5 18.9L7.8 19.1C9.1 19.8 10.5 20.2 12 20.2C13.6 20.2 15.1 19.7 16.4 18.9C20.3 16.5 21.4 11.4 19 7.49998C16.6 3.69998 11.6 2.39998 7.7 4.89998C3.8 7.39998 2.6 12.4 5 16.4L5.2 16.7L4.4 19.7L7.5 18.9Z" fill="#69B99D"/>
</svg>
