<svg width="80" height="80" viewBox="0 0 80 80" fill="none" xmlns="http://www.w3.org/2000/svg">
<path d="M18.7507 23.7508C21.5119 23.7508 23.7506 21.5121 23.7506 18.7509C23.7506 15.9897 21.5119 13.751 18.7507 13.751C15.9891 13.751 13.7508 15.9897 13.7508 18.7509C13.7508 21.5121 15.9891 23.7508 18.7507 23.7508ZM18.7507 16.2509C20.1311 16.2509 21.2507 17.3705 21.2507 18.7509C21.2507 20.1317 20.1311 21.2509 18.7507 21.2509C17.3699 21.2509 16.2508 20.1317 16.2508 18.7509C16.2508 17.3705 17.3699 16.2509 18.7507 16.2509Z" fill="#69B99D"/>
<path fill-rule="evenodd" clip-rule="evenodd" d="M18.7507 22.7508C20.9596 22.7508 22.7506 20.9598 22.7506 18.7509C22.7506 16.542 20.9596 14.751 18.7507 14.751C16.5414 14.751 14.7508 16.5419 14.7508 18.7509C14.7508 20.9599 16.5414 22.7508 18.7507 22.7508ZM18.7507 15.2509C20.6834 15.2509 22.2507 16.8183 22.2507 18.7509C22.2507 20.6841 20.6832 22.2509 18.7507 22.2509C16.8176 22.2509 15.2508 20.684 15.2508 18.7509C15.2508 16.8184 16.8175 15.2509 18.7507 15.2509ZM23.7506 18.7509C23.7506 21.5121 21.5119 23.7508 18.7507 23.7508C15.9891 23.7508 13.7508 21.5121 13.7508 18.7509C13.7508 15.9897 15.9891 13.751 18.7507 13.751C21.5119 13.751 23.7506 15.9897 23.7506 18.7509ZM21.2507 18.7509C21.2507 17.3705 20.1311 16.2509 18.7507 16.2509C17.3699 16.2509 16.2508 17.3705 16.2508 18.7509C16.2508 20.1317 17.3699 21.2509 18.7507 21.2509C20.1311 21.2509 21.2507 20.1317 21.2507 18.7509Z" fill="#69B99D"/>
<path d="M17.5007 36.2505C17.5007 33.4893 15.2619 31.2506 12.5007 31.2506C9.73906 31.2506 7.50081 33.4893 7.50081 36.2505C7.50081 39.0117 9.73906 41.2504 12.5007 41.2504C15.2619 41.2504 17.5007 39.0117 17.5007 36.2505ZM10.0008 36.2505C10.0008 34.8702 11.1199 33.7506 12.5007 33.7506C13.8811 33.7506 15.0007 34.8702 15.0007 36.2505C15.0007 37.6314 13.8811 38.7505 12.5007 38.7505C11.1199 38.7505 10.0008 37.6314 10.0008 36.2505Z" fill="#69B99D"/>
<path fill-rule="evenodd" clip-rule="evenodd" d="M16.5007 36.2505C16.5007 34.0416 14.7096 32.2506 12.5007 32.2506C10.2914 32.2506 8.50081 34.0416 8.50081 36.2505C8.50081 38.4595 10.2914 40.2504 12.5007 40.2504C14.7096 40.2504 16.5007 38.4594 16.5007 36.2505ZM9.00077 36.2505C9.00077 34.318 10.5675 32.7506 12.5007 32.7506C14.4334 32.7506 16.0007 34.3179 16.0007 36.2505C16.0007 38.1838 14.4332 39.7505 12.5007 39.7505C10.5676 39.7505 9.00077 38.1836 9.00077 36.2505ZM12.5007 31.2506C15.2619 31.2506 17.5007 33.4893 17.5007 36.2505C17.5007 39.0117 15.2619 41.2504 12.5007 41.2504C9.73906 41.2504 7.50081 39.0117 7.50081 36.2505C7.50081 33.4893 9.73906 31.2506 12.5007 31.2506ZM12.5007 33.7506C11.1199 33.7506 10.0008 34.8702 10.0008 36.2505C10.0008 37.6314 11.1199 38.7505 12.5007 38.7505C13.8811 38.7505 15.0007 37.6314 15.0007 36.2505C15.0007 34.8702 13.8811 33.7506 12.5007 33.7506Z" fill="#69B99D"/>
<path d="M15.0007 48.7502C12.2391 48.7502 10.0008 50.989 10.0008 53.7502C10.0008 56.5114 12.2391 58.7501 15.0007 58.7501C17.7619 58.7501 20.0007 56.5114 20.0007 53.7502C20.0007 50.989 17.7619 48.7502 15.0007 48.7502ZM15.0007 56.2501C13.6199 56.2501 12.5008 55.131 12.5008 53.7502C12.5008 52.3698 13.6199 51.2502 15.0007 51.2502C16.3811 51.2502 17.5007 52.3698 17.5007 53.7502C17.5007 55.131 16.3811 56.2501 15.0007 56.2501Z" fill="#69B99D"/>
<path fill-rule="evenodd" clip-rule="evenodd" d="M15.0007 49.7502C12.7914 49.7502 11.0008 51.5412 11.0008 53.7502C11.0008 55.9591 12.7914 57.7501 15.0007 57.7501C17.2096 57.7501 19.0007 55.9591 19.0007 53.7502C19.0007 51.5413 17.2096 49.7502 15.0007 49.7502ZM15.0007 57.2501C13.0676 57.2501 11.5008 55.6833 11.5008 53.7502C11.5008 51.8177 13.0675 50.2502 15.0007 50.2502C16.9334 50.2502 18.5007 51.8175 18.5007 53.7502C18.5007 55.6834 16.9332 57.2501 15.0007 57.2501ZM10.0008 53.7502C10.0008 50.989 12.2391 48.7502 15.0007 48.7502C17.7619 48.7502 20.0007 50.989 20.0007 53.7502C20.0007 56.5114 17.7619 58.7501 15.0007 58.7501C12.2391 58.7501 10.0008 56.5114 10.0008 53.7502ZM12.5008 53.7502C12.5008 55.131 13.6199 56.2501 15.0007 56.2501C16.3811 56.2501 17.5007 55.131 17.5007 53.7502C17.5007 52.3698 16.3811 51.2502 15.0007 51.2502C13.6199 51.2502 12.5008 52.3698 12.5008 53.7502Z" fill="#69B99D"/>
<path d="M61.2499 23.7508C64.0111 23.7508 66.2498 21.5121 66.2498 18.7509C66.2498 15.9897 64.0111 13.751 61.2499 13.751C58.4882 13.751 56.25 15.9897 56.25 18.7509C56.25 21.5121 58.4882 23.7508 61.2499 23.7508ZM61.2499 16.2509C62.6303 16.2509 63.7499 17.3705 63.7499 18.7509C63.7499 20.1317 62.6303 21.2509 61.2499 21.2509C59.8691 21.2509 58.75 20.1317 58.75 18.7509C58.75 17.3705 59.8691 16.2509 61.2499 16.2509Z" fill="#69B99D"/>
<path fill-rule="evenodd" clip-rule="evenodd" d="M61.2499 22.7508C63.4588 22.7508 65.2498 20.9598 65.2498 18.7509C65.2498 16.542 63.4588 14.751 61.2499 14.751C59.0406 14.751 57.25 16.5419 57.25 18.7509C57.25 20.9599 59.0406 22.7508 61.2499 22.7508ZM61.2499 15.2509C63.1826 15.2509 64.7499 16.8183 64.7499 18.7509C64.7499 20.6841 63.1824 22.2509 61.2499 22.2509C59.3168 22.2509 57.75 20.684 57.75 18.7509C57.75 16.8184 59.3167 15.2509 61.2499 15.2509ZM66.2498 18.7509C66.2498 21.5121 64.0111 23.7508 61.2499 23.7508C58.4882 23.7508 56.25 21.5121 56.25 18.7509C56.25 15.9897 58.4882 13.751 61.2499 13.751C64.0111 13.751 66.2498 15.9897 66.2498 18.7509ZM63.7499 18.7509C63.7499 17.3705 62.6303 16.2509 61.2499 16.2509C59.8691 16.2509 58.75 17.3705 58.75 18.7509C58.75 20.1317 59.8691 21.2509 61.2499 21.2509C62.6303 21.2509 63.7499 20.1317 63.7499 18.7509Z" fill="#69B99D"/>
<path d="M62.5 36.2505C62.5 39.0117 64.7382 41.2504 67.4999 41.2504C70.2611 41.2504 72.4998 39.0117 72.4998 36.2505C72.4998 33.4893 70.2611 31.2506 67.4999 31.2506C64.7382 31.2506 62.5 33.4893 62.5 36.2505ZM69.9999 36.2505C69.9999 37.6314 68.8803 38.7505 67.4999 38.7505C66.1191 38.7505 65 37.6314 65 36.2505C65 34.8702 66.1191 33.7506 67.4999 33.7506C68.8803 33.7506 69.9999 34.8702 69.9999 36.2505Z" fill="#69B99D"/>
<path fill-rule="evenodd" clip-rule="evenodd" d="M63.5 36.2505C63.5 38.4595 65.2906 40.2504 67.4999 40.2504C69.7088 40.2504 71.4998 38.4594 71.4998 36.2505C71.4998 34.0416 69.7088 32.2506 67.4999 32.2506C65.2906 32.2506 63.5 34.0416 63.5 36.2505ZM70.9999 36.2505C70.9999 38.1838 69.4324 39.7505 67.4999 39.7505C65.5668 39.7505 64 38.1836 64 36.2505C64 34.318 65.5667 32.7506 67.4999 32.7506C69.4325 32.7506 70.9999 34.3179 70.9999 36.2505ZM67.4999 41.2504C64.7382 41.2504 62.5 39.0117 62.5 36.2505C62.5 33.4893 64.7382 31.2506 67.4999 31.2506C70.2611 31.2506 72.4998 33.4893 72.4998 36.2505C72.4998 39.0117 70.2611 41.2504 67.4999 41.2504ZM67.4999 38.7505C68.8803 38.7505 69.9999 37.6314 69.9999 36.2505C69.9999 34.8702 68.8803 33.7506 67.4999 33.7506C66.1191 33.7506 65 34.8702 65 36.2505C65 37.6314 66.1191 38.7505 67.4999 38.7505Z" fill="#69B99D"/>
<path d="M70.8529 45.659C75.3792 44.0525 78.1208 39.452 77.3796 34.7065C76.6379 29.9615 72.6238 26.4161 67.8231 26.2672C71.9144 22.6906 72.3958 16.4998 68.9071 12.3338C65.4179 8.16739 59.2388 7.55461 55.0001 10.9549V3.75096C55.0001 3.06103 54.4405 2.50098 53.7501 2.50098H26.2506C25.5602 2.50098 25.0006 3.06103 25.0006 3.75096V10.9735C20.7673 7.56339 14.5833 8.16836 11.0907 12.3333C7.59803 16.4988 8.08045 22.693 12.1766 26.2672C7.37636 26.4161 3.36226 29.9615 2.62058 34.7065C1.87889 39.452 4.62054 44.0525 9.14684 45.659C5.49602 48.2976 4.06147 53.0529 5.64543 57.2696C7.22841 61.4863 11.4383 64.1225 15.9236 63.7055C20.4084 63.2886 24.0602 59.9219 24.839 55.4855C26.2564 57.461 28.002 59.1793 30.0005 60.5655V67.4999H18.7507C15.3005 67.5043 12.5042 70.2997 12.5008 73.7498V76.2498C12.5008 76.9402 13.0603 77.4998 13.7508 77.4998H66.2499C66.9403 77.4998 67.4999 76.9402 67.4999 76.2498V73.7498C67.4955 70.2997 64.6997 67.5043 61.25 67.4999H50.0002V60.5655C51.9977 59.1793 53.7438 57.461 55.1612 55.4855C55.9322 59.9327 59.5874 63.312 64.0815 63.7329C68.5751 64.1543 72.7947 61.5127 74.3777 57.2852C75.9617 53.0587 74.5174 48.2952 70.8529 45.659ZM74.9998 36.2504C74.9998 40.3924 71.6414 43.7503 67.4999 43.7503C63.3574 43.7503 60 40.3924 60 36.2504C60 32.1089 63.3574 28.7505 67.4999 28.7505C71.64 28.7549 74.9954 32.1099 74.9998 36.2504ZM58.6773 31.5532C58.2769 30.2935 57.7813 29.0669 57.1949 27.8834C58.3716 28.4063 59.6387 28.6959 60.9258 28.7344C60.0127 29.5308 59.2505 30.4859 58.6773 31.5532ZM61.25 11.2508C65.2328 11.246 68.5258 14.3563 68.7469 18.3342C68.9681 22.3117 66.0419 25.7682 62.082 26.2057C58.1226 26.6427 54.5118 23.9083 53.86 19.9782C54.5016 19.9275 54.9962 19.3943 55.0001 18.7507V14.6263C56.3765 12.5145 58.729 11.2445 61.25 11.2508ZM52.5001 17.5007H46.2502V5.00094H52.5001V17.5007ZM43.7503 5.00094V17.5007H36.2504V5.00094H43.7503ZM21.3224 31.5532C20.7487 30.4854 19.9865 29.5308 19.0729 28.7344C20.36 28.6954 21.6271 28.4063 22.8038 27.8834C22.2179 29.0674 21.7228 30.2945 21.3224 31.5532ZM27.5005 5.00094H33.7504V17.5007H27.5005V5.00094ZM11.2508 18.7507C11.2454 15.4388 13.4158 12.5164 16.5881 11.5643C19.7609 10.6127 23.1818 11.8578 25.0006 14.6263V18.7507C25.0035 19.3943 25.4991 19.9275 26.1402 19.9782C25.4786 23.8053 22.0045 26.4933 18.134 26.1739C14.2639 25.8551 11.2772 22.6344 11.2508 18.7507ZM5.00091 36.2504C5.00091 32.1089 8.35828 28.7505 12.5008 28.7505C16.6423 28.7505 20.0007 32.1089 20.0007 36.2504C20.0007 40.3924 16.6423 43.7503 12.5008 43.7503C8.36023 43.7464 5.00433 40.391 5.00091 36.2504ZM15.0007 61.25C10.8582 61.25 7.50087 57.8922 7.50087 53.7501C7.50087 49.6086 10.8582 46.2503 15.0007 46.2503C19.1423 46.2503 22.5006 49.6086 22.5006 53.7501C22.4962 57.8907 19.1408 61.2461 15.0007 61.25ZM18.3537 44.3421C19.0124 43.8651 19.612 43.3109 20.1379 42.6917C20.2272 43.6194 20.3605 44.5325 20.5387 45.4309C19.8586 44.9793 19.1242 44.6136 18.3537 44.3421ZM48.0798 58.8419C47.7185 59.0713 47.4997 59.4698 47.5002 59.8975V68.7499C47.5002 69.4403 48.0598 69.9999 48.7502 69.9999H61.25C63.3208 69.9999 64.9999 71.679 64.9999 73.7498V74.9998H15.0007V73.7498C15.0007 71.679 16.6789 69.9999 18.7507 69.9999H31.2505C31.9409 69.9999 32.5005 69.4403 32.5005 68.7499V59.8926C32.5005 59.4644 32.2817 59.066 31.9199 58.8365C26.1099 55.149 22.5006 47.9319 22.5006 40.0004C22.3747 33.5932 24.9244 27.4224 29.5352 22.9718C29.1094 25.7135 28.8467 28.4781 28.7505 31.2505C28.7505 31.9409 29.3101 32.5005 30.0005 32.5005C30.6909 32.5005 31.2505 31.9409 31.2505 31.2505C31.4194 27.7784 31.7954 24.319 32.3755 20.8908C32.9321 20.5593 33.5073 20.2619 34.1 20.0007H34.7905C34.2016 23.7248 33.8535 27.4825 33.7504 31.2505C33.7504 31.9409 34.31 32.5005 35.0004 32.5005C35.6908 32.5005 36.2504 31.9409 36.2504 31.2505C36.3652 27.482 36.7221 23.7238 37.3202 20.0007H38.7504V31.2505C38.7504 31.9409 39.3099 32.5005 40.0003 32.5005C40.6908 32.5005 41.2503 31.9409 41.2503 31.2505V20.0007H42.6805C43.2776 23.7238 43.6351 27.482 43.7503 31.2505C43.7503 31.9409 44.3098 32.5005 45.0003 32.5005C45.6907 32.5005 46.2502 31.9409 46.2502 31.2505C46.1462 27.4825 45.7991 23.7248 45.2102 20.0007H45.8987C46.4924 20.2619 47.0701 20.5593 47.6277 20.8908C48.2068 24.319 48.5818 27.7784 48.7502 31.2505C48.7502 31.9409 49.3098 32.5005 50.0002 32.5005C50.6906 32.5005 51.2502 31.9409 51.2502 31.2505C51.153 28.4781 50.8913 25.7135 50.465 22.9718C55.0763 27.4224 57.6251 33.5932 57.5001 40.0004C57.5001 47.9319 53.8898 55.149 48.0798 58.8365V58.8419ZM59.8618 42.6917C60.3887 43.3109 60.9873 43.8651 61.646 44.3421C60.876 44.6136 60.1421 44.9793 59.461 45.4309C59.6387 44.533 59.7725 43.6199 59.8618 42.6917ZM64.9999 61.25C60.8574 61.25 57.5001 57.8922 57.5001 53.7501C57.5001 49.6086 60.8574 46.2503 64.9999 46.2503C69.1415 46.2503 72.4998 49.6086 72.4998 53.7501C72.4954 57.8907 69.14 61.2461 64.9999 61.25Z" fill="#69B99D"/>
<path fill-rule="evenodd" clip-rule="evenodd" d="M71.9156 45.2117C75.8 43.3071 78.0608 39.0681 77.3796 34.7065C76.7069 30.4027 73.3421 27.0859 69.1401 26.3951C68.7092 26.3243 68.2696 26.281 67.8231 26.2672C68.16 25.9727 68.4725 25.6604 68.7602 25.333C71.9667 21.6847 72.1085 16.1567 68.9071 12.3338C65.6836 8.48465 60.1642 7.66853 56.0001 10.2478C55.6569 10.4604 55.3229 10.696 55.0001 10.9549V3.75096C55.0001 3.06103 54.4405 2.50098 53.7501 2.50098H26.2506C25.5602 2.50098 25.0006 3.06103 25.0006 3.75096V10.9735C24.6779 10.7136 24.3439 10.477 24.0006 10.2635C19.8401 7.67631 14.317 8.48584 11.0907 12.3333C7.88574 16.1557 8.02795 21.6863 11.2381 25.3332C11.5263 25.6606 11.8392 25.9728 12.1766 26.2672C11.7298 26.2811 11.2899 26.3243 10.8588 26.3953C6.65754 27.0864 3.29324 30.4031 2.62058 34.7065C1.93883 39.0685 4.20015 43.308 8.0853 45.2123C8.42689 45.3798 8.78104 45.5291 9.14684 45.659C8.83249 45.8862 8.53458 46.129 8.25361 46.3859C5.27136 49.1125 4.19785 53.416 5.64543 57.2696C7.22841 61.4863 11.4383 64.1225 15.9236 63.7055C19.9727 63.3291 23.3429 60.5481 24.5326 56.7463C24.6606 56.3372 24.7633 55.9164 24.839 55.4855C25.094 55.8409 25.3596 56.1879 25.6354 56.5262C26.8927 58.0685 28.3615 59.4286 30.0005 60.5655V67.4999H18.7507C15.3005 67.5043 12.5042 70.2997 12.5008 73.7498V76.2498C12.5008 76.9402 13.0603 77.4998 13.7508 77.4998H66.2499C66.9403 77.4998 67.4999 76.9402 67.4999 76.2498V73.7498C67.4955 70.2997 64.6997 67.5043 61.25 67.4999H50.0002V60.5655C51.6378 59.429 53.1064 58.0695 54.3634 56.5279C54.6397 56.1891 54.9058 55.8414 55.1612 55.4855C55.2361 55.9173 55.3382 56.339 55.4655 56.749C56.65 60.561 60.0238 63.3529 64.0815 63.7329C68.5751 64.1543 72.7947 61.5127 74.3777 57.2852C75.8254 53.4223 74.7434 49.1107 71.7488 46.3848C71.4669 46.1283 71.1681 45.8857 70.8529 45.659C71.2191 45.529 71.5737 45.3794 71.9156 45.2117ZM61.2487 68.4999H49.0002V60.0422L49.4301 59.7439C51.3339 58.4227 52.9979 56.7852 54.3487 54.9025L55.7391 52.9647L56.1465 55.3147C56.8404 59.317 60.13 62.3584 64.1747 62.7372C68.2189 63.1165 72.0166 60.7391 73.4412 56.9346C74.8667 53.1309 73.5671 48.8434 70.2689 46.4707L68.7185 45.3554L70.5184 44.7166C74.5914 43.271 77.0585 39.1312 76.3916 34.8609C75.7242 30.591 72.112 27.4007 67.7921 27.2667L65.2506 27.1879L67.165 25.5143C70.8466 22.2958 71.2799 16.7247 68.1404 12.9759C65.0005 9.22647 59.4401 8.67516 55.6259 11.735L54.0001 13.0392V3.75096C54.0001 3.61306 53.888 3.50098 53.7501 3.50098H26.2506C26.1127 3.50098 26.0006 3.61306 26.0006 3.75096V13.0631L24.3733 11.7523C20.5641 8.68384 14.9996 9.22816 11.8569 12.9759C8.7142 16.7241 9.14833 22.2977 12.834 25.5137L14.7526 27.1878L12.2076 27.2667C7.88818 27.4007 4.27601 30.591 3.60858 34.8609C2.94117 39.1312 5.40822 43.271 9.48131 44.7166L11.2764 45.3537L9.73261 46.4694C6.44706 48.8441 5.15621 53.1235 6.58156 56.918C8.00606 60.7125 11.7946 63.0851 15.831 62.7098C19.8669 62.3346 23.1532 59.3049 23.854 55.3126L24.2652 52.9704L25.6515 54.9025C27.0023 56.7852 28.6659 58.4227 30.5704 59.7438L31.0005 60.0421V68.4999H18.752C15.8532 68.5036 13.5042 70.8519 13.5008 73.7498V76.2498C13.5008 76.3879 13.6126 76.4998 13.7508 76.4998H66.2499C66.3881 76.4998 66.4999 76.3879 66.4999 76.2498V73.7511C66.4962 70.8523 64.1471 68.5036 61.2487 68.4999ZM75.9998 36.2494V36.2504C75.9998 40.9448 72.1937 44.7503 67.4999 44.7503C62.8051 44.7503 59 40.9447 59 36.2504C59 31.5567 62.805 27.7505 67.4999 27.7505H67.501C72.1924 27.7555 75.9948 31.5573 75.9998 36.2494ZM58.4401 34.1084L57.7243 31.8561C57.3393 30.6449 56.8627 29.4655 56.2988 28.3273L55.0685 25.8441L57.601 26.9695C58.6595 27.4399 59.7988 27.7002 60.9557 27.7349L63.5056 27.8113L61.5831 29.4881C60.7607 30.2053 60.0744 31.0654 59.5583 32.0264L58.4401 34.1084ZM62.1917 27.1996C57.7045 27.6949 53.6122 24.5961 52.8735 20.1419L52.6952 19.0673L53.7811 18.9813C53.9032 18.9717 53.9984 18.871 54.0001 18.7466V14.3291L54.1623 14.0802C55.7237 11.6848 58.3918 10.2443 61.2507 10.2508C65.7638 10.2463 69.4948 13.771 69.7454 18.2787C69.9961 22.7864 66.6796 26.7038 62.1917 27.1996ZM61.25 11.2508C65.2328 11.246 68.5258 14.3563 68.7469 18.3342C68.9681 22.3117 66.0419 25.7682 62.082 26.2057C58.4608 26.6053 55.1313 24.3524 54.0902 20.958C53.9929 20.641 53.9157 20.314 53.86 19.9782C53.9321 19.9725 54.0023 19.9607 54.0703 19.9434C54.6066 19.8062 54.9966 19.3219 55.0001 18.7507V14.6263C56.3765 12.5145 58.729 11.2445 61.25 11.2508ZM53.5001 18.5007H45.2502V4.00094H53.5001V18.5007ZM44.7503 4.00094V18.5007H35.2504V4.00094H44.7503ZM21.5594 34.1073L20.4415 32.0265C19.925 31.0651 19.2387 30.2055 18.4158 29.4882L16.4933 27.8123L19.0426 27.7349C20.2001 27.6998 21.3395 27.4398 22.3977 26.9695L24.9283 25.845L23.7001 28.3269C23.1367 29.4655 22.6605 30.6456 22.2754 31.8563L21.5594 34.1073ZM26.5005 4.00094H34.7504V18.5007H26.5005V4.00094ZM10.2508 18.7575L10.2508 18.7523C10.2447 14.9982 12.7049 11.6858 16.3007 10.6065C19.897 9.52783 23.7747 10.9391 25.8364 14.0772L26.0006 14.3272V18.7475C26.0018 18.87 26.0962 18.9716 26.2192 18.9814L27.3124 19.0679L27.1256 20.1486C26.3758 24.4861 22.4384 27.5324 18.0519 27.1706M25.0006 18.7507V14.6263C23.1818 11.8578 19.7609 10.6127 16.5881 11.5643C13.4158 12.5164 11.2454 15.4388 11.2508 18.7507C11.2772 22.6344 14.2639 25.8551 18.134 26.1739C21.6653 26.4653 24.8666 24.2534 25.9031 20.957C26.0026 20.6403 26.0822 20.3136 26.1402 19.9782C26.0624 19.9721 25.9868 19.9588 25.9139 19.9391C25.3861 19.7964 25.0032 19.3162 25.0006 18.7507ZM4.00091 36.2504C4.00091 31.5567 7.80591 27.7505 12.5008 27.7505C17.1946 27.7505 21.0007 31.5566 21.0007 36.2504C21.0007 40.9448 17.1946 44.7503 12.5008 44.7503C7.80879 44.7459 4.00478 40.9427 4.00091 36.2504ZM15.0007 62.25C10.3059 62.25 6.50087 58.4444 6.50087 53.7501C6.50087 49.0564 10.3059 45.2503 15.0007 45.2503C19.6946 45.2503 23.5006 49.0563 23.5006 53.7501V53.7512C23.4956 58.4431 19.6924 62.2456 15.0007 62.25ZM16.222 44.6513L17.7672 43.5322C18.3614 43.1018 18.902 42.6021 19.3757 42.0444L20.9066 40.242L21.1333 42.5959C21.2195 43.4914 21.3481 44.3715 21.5196 45.2364L21.9871 47.5931L19.9856 46.264C19.3744 45.8582 18.7143 45.5294 18.0214 45.2853L16.222 44.6513ZM49.0798 59.3914L48.6159 59.686C48.5436 59.7319 48.5001 59.8116 48.5002 59.8964V68.7499C48.5002 68.888 48.6121 68.9999 48.7502 68.9999H61.25C63.8731 68.9999 65.9999 71.1268 65.9999 73.7498V75.9998H14.0007V73.7498C14.0007 71.1269 16.1265 68.9999 18.7507 68.9999H31.2505C31.3886 68.9999 31.5005 68.888 31.5005 68.7499V59.8926C31.5005 59.8064 31.4565 59.7268 31.3843 59.6809C25.2395 55.781 21.5036 48.2189 21.5006 40.0102C21.372 33.3284 24.0322 26.8938 28.8407 22.2523L30.9795 20.1878L30.5233 23.1253C30.1049 25.82 29.8462 28.5369 29.7508 31.2613C29.7564 31.3944 29.866 31.5005 30.0005 31.5005C30.1386 31.5005 30.2505 31.3886 30.2505 31.2505V31.2262L30.2517 31.2019C30.4225 27.6901 30.8028 24.1912 31.3895 20.724L31.4666 20.2682L31.8637 20.0317C32.4548 19.6796 33.0661 19.3635 33.6968 19.0856L33.8895 19.0007H35.961L35.7782 20.1569C35.197 23.8323 34.8531 27.5407 34.7506 31.259C34.7551 31.3932 34.8651 31.5005 35.0004 31.5005C35.1386 31.5005 35.2504 31.3886 35.2504 31.2505V31.2353L35.2509 31.2201C35.3669 27.4088 35.7279 23.6077 36.3329 19.8421L36.468 19.0007H39.7504V31.2505C39.7504 31.3886 39.8622 31.5005 40.0003 31.5005C40.1385 31.5005 40.2503 31.3886 40.2503 31.2505V19.0007H43.5329L43.6679 19.8423C44.2718 23.6077 44.6333 27.4086 44.7498 31.2199L44.7503 31.2352V31.2505C44.7503 31.3886 44.8621 31.5005 45.0003 31.5005C45.1355 31.5005 45.2456 31.3933 45.2501 31.2591C45.1466 27.5405 44.8036 23.8321 44.2225 20.1569L44.0397 19.0007H46.1089L46.3014 19.0854C46.9323 19.363 47.5462 19.6789 48.1387 20.0313L48.5366 20.2678L48.6137 20.7243C49.1994 24.1915 49.5787 27.6903 49.749 31.202L49.7502 31.2263V31.2505C49.7502 31.3886 49.8621 31.5005 50.0002 31.5005C50.1347 31.5005 50.2442 31.3945 50.2499 31.2614C50.1535 28.5367 49.8958 25.8197 49.4769 23.1255L49.0201 20.1875L51.1595 22.2523C55.9686 26.8939 58.6277 33.3285 58.5001 40.0101C58.4972 48.0102 54.948 55.3958 49.0798 59.3762V59.3914ZM57.5001 40.0004C57.6139 34.1678 55.5119 28.531 51.6553 24.2095C51.2754 23.7838 50.8785 23.3709 50.465 22.9718C50.5518 23.5302 50.6318 24.0895 50.705 24.6497C50.9911 26.8399 51.1728 29.0427 51.2502 31.2505C51.2502 31.9409 50.6906 32.5005 50.0002 32.5005C49.3098 32.5005 48.7502 31.9409 48.7502 31.2505C48.5818 27.7784 48.2068 24.319 47.6277 20.8908C47.1797 20.6245 46.7189 20.3802 46.2471 20.159C46.1316 20.1048 46.0155 20.0521 45.8987 20.0007H45.2102C45.2629 20.3338 45.3136 20.6671 45.3624 21.0007C45.8592 24.397 46.1555 27.8195 46.2502 31.2505C46.2502 31.9409 45.6907 32.5005 45.0003 32.5005C44.3098 32.5005 43.7503 31.9409 43.7503 31.2505C43.6351 27.482 43.2776 23.7238 42.6805 20.0007H41.2503V31.2505C41.2503 31.9409 40.6908 32.5005 40.0003 32.5005C39.3099 32.5005 38.7504 31.9409 38.7504 31.2505V20.0007H37.3202C36.7221 23.7238 36.3652 27.482 36.2504 31.2505C36.2504 31.9409 35.6908 32.5005 35.0004 32.5005C34.31 32.5005 33.7504 31.9409 33.7504 31.2505C33.8443 27.8195 34.1413 24.397 34.6383 21.0007C34.6871 20.6671 34.7378 20.3338 34.7905 20.0007H34.1C33.9839 20.0519 33.8685 20.1044 33.7537 20.1584C33.2826 20.3797 32.823 20.6242 32.3755 20.8908C31.7954 24.319 31.4194 27.7784 31.2505 31.2505C31.2505 31.9409 30.6909 32.5005 30.0005 32.5005C29.3101 32.5005 28.7505 31.9409 28.7505 31.2505C28.8271 29.0427 29.0093 26.8398 29.2954 24.6496C29.3685 24.0895 29.4485 23.5302 29.5352 22.9718C29.1218 23.3709 28.7249 23.7838 28.3451 24.2094C24.4887 28.531 22.3859 34.1677 22.5006 40.0004C22.5006 47.9319 26.1099 55.149 31.9199 58.8365C32.2817 59.066 32.5005 59.4644 32.5005 59.8926V68.7499C32.5005 69.4403 31.9409 69.9999 31.2505 69.9999H18.7507C16.6789 69.9999 15.0007 71.679 15.0007 73.7498V74.9998H64.9999V73.7498C64.9999 71.679 63.3208 69.9999 61.25 69.9999H48.7502C48.0598 69.9999 47.5002 69.4403 47.5002 68.7499V59.8975C47.4997 59.4698 47.7185 59.0713 48.0798 58.8419V58.8365C53.8898 55.149 57.5001 47.9319 57.5001 40.0004ZM59.0928 40.2449L60.6234 42.0437C61.0988 42.6024 61.6388 43.1021 62.2326 43.5322L63.7773 44.651L61.9785 45.2852C61.2862 45.5293 60.6262 45.8581 60.0136 46.2644L58.0142 47.5901L58.48 45.2368C58.6512 44.3718 58.7802 43.4916 58.8664 42.5959L59.0928 40.2449ZM64.9999 62.25C60.3051 62.25 56.5001 58.4444 56.5001 53.7501C56.5001 49.0564 60.3051 45.2503 64.9999 45.2503C69.6938 45.2503 73.4998 49.0563 73.4998 53.7501V53.7512C73.4948 58.4431 69.6916 62.2456 64.9999 62.25ZM74.9998 36.2504C74.9998 40.3924 71.6414 43.7503 67.4999 43.7503C63.3574 43.7503 60 40.3924 60 36.2504C60 32.1089 63.3574 28.7505 67.4999 28.7505C71.64 28.7549 74.9954 32.1099 74.9998 36.2504ZM58.2486 30.3137C58.4018 30.723 58.5448 31.1363 58.6773 31.5532C58.8823 31.1715 59.1115 30.804 59.3632 30.4531C59.558 30.1814 59.7663 29.9196 59.9872 29.6687C60.2787 29.3376 60.5922 29.0254 60.9258 28.7344C60.4833 28.7212 60.0431 28.6782 59.6082 28.6064C59.2439 28.5462 58.8833 28.4656 58.528 28.3652C58.0737 28.2368 57.6282 28.0759 57.1949 27.8834C57.4074 28.3123 57.608 28.7469 57.7965 29.1867C57.9559 29.5587 58.1067 29.9345 58.2486 30.3137ZM20.6365 30.4534C20.8881 30.8042 21.1173 31.1715 21.3224 31.5532C21.455 31.1365 21.5979 30.7233 21.7511 30.3139C21.893 29.9346 22.0437 29.5586 22.2031 29.1863C22.3913 28.7467 22.5916 28.3122 22.8038 27.8834C22.3708 28.0758 21.9254 28.2366 21.4714 28.3649C21.1159 28.4654 20.7551 28.5459 20.3907 28.6061C19.9557 28.678 19.5155 28.721 19.0729 28.7344C19.4067 29.0254 19.7203 29.3374 20.0118 29.6684C20.233 29.9195 20.4415 30.1815 20.6365 30.4534ZM10.2508 18.7575C10.2807 23.159 13.6658 26.8091 18.0519 27.1706ZM5.00091 36.2504C5.00091 32.1089 8.35828 28.7505 12.5008 28.7505C16.6423 28.7505 20.0007 32.1089 20.0007 36.2504C20.0007 40.3924 16.6423 43.7503 12.5008 43.7503C8.36023 43.7464 5.00433 40.391 5.00091 36.2504ZM15.0007 61.25C10.8582 61.25 7.50087 57.8922 7.50087 53.7501C7.50087 49.6086 10.8582 46.2503 15.0007 46.2503C19.1423 46.2503 22.5006 49.6086 22.5006 53.7501C22.4962 57.8907 19.1408 61.2461 15.0007 61.25ZM20.1379 42.6917C19.8608 43.0179 19.5634 43.326 19.2476 43.6143C19.2435 43.6181 19.2394 43.6218 19.2352 43.6256C18.9552 43.8804 18.6609 44.1196 18.3537 44.3421C18.7122 44.4684 19.0628 44.6151 19.4038 44.7814C19.408 44.7834 19.4121 44.7854 19.4163 44.7874C19.8038 44.9771 20.1789 45.192 20.5387 45.4309C20.4532 44.9995 20.3779 44.5647 20.313 44.1264C20.3066 44.0833 20.3003 44.0401 20.2941 43.9969C20.2321 43.5651 20.1801 43.1301 20.1379 42.6917ZM59.8618 42.6917C59.8197 43.13 59.7676 43.5649 59.7056 43.9964C59.6994 44.0399 59.693 44.0834 59.6866 44.1269C59.6215 44.565 59.5463 44.9997 59.461 45.4309C59.8213 45.192 60.1963 44.9772 60.5837 44.7876C60.5877 44.7856 60.5917 44.7837 60.5957 44.7817C60.9368 44.6153 61.2875 44.4685 61.646 44.3421C61.3387 44.1195 61.0444 43.8802 60.7645 43.6252C60.7605 43.6216 60.7565 43.618 60.7525 43.6143C60.4368 43.326 60.1394 43.0179 59.8618 42.6917ZM64.9999 61.25C60.8574 61.25 57.5001 57.8922 57.5001 53.7501C57.5001 49.6086 60.8574 46.2503 64.9999 46.2503C69.1415 46.2503 72.4998 49.6086 72.4998 53.7501C72.4954 57.8907 69.14 61.2461 64.9999 61.25ZM52.5001 17.5007V5.00094H46.2502V17.5007H52.5001ZM43.7503 5.00094H36.2504V17.5007H43.7503V5.00094ZM27.5005 5.00094V17.5007H33.7504V5.00094H27.5005Z" fill="#69B99D"/>
<path d="M64.9999 48.7502C62.2382 48.7502 60 50.989 60 53.7502C60 56.5114 62.2382 58.7501 64.9999 58.7501C67.7611 58.7501 69.9998 56.5114 69.9998 53.7502C69.9998 50.989 67.7611 48.7502 64.9999 48.7502ZM64.9999 56.2501C63.6191 56.2501 62.5 55.131 62.5 53.7502C62.5 52.3698 63.6191 51.2502 64.9999 51.2502C66.3803 51.2502 67.4999 52.3698 67.4999 53.7502C67.4999 55.131 66.3803 56.2501 64.9999 56.2501Z" fill="#69B99D"/>
<path fill-rule="evenodd" clip-rule="evenodd" d="M64.9999 49.7502C62.7906 49.7502 61 51.5412 61 53.7502C61 55.9591 62.7906 57.7501 64.9999 57.7501C67.2088 57.7501 68.9998 55.9591 68.9998 53.7502C68.9998 51.5413 67.2088 49.7502 64.9999 49.7502ZM64.9999 57.2501C63.0668 57.2501 61.5 55.6833 61.5 53.7502C61.5 51.8177 63.0667 50.2502 64.9999 50.2502C66.9326 50.2502 68.4999 51.8175 68.4999 53.7502C68.4999 55.6834 66.9324 57.2501 64.9999 57.2501ZM60 53.7502C60 50.989 62.2382 48.7502 64.9999 48.7502C67.7611 48.7502 69.9998 50.989 69.9998 53.7502C69.9998 56.5114 67.7611 58.7501 64.9999 58.7501C62.2382 58.7501 60 56.5114 60 53.7502ZM62.5 53.7502C62.5 55.131 63.6191 56.2501 64.9999 56.2501C66.3803 56.2501 67.4999 55.131 67.4999 53.7502C67.4999 52.3698 66.3803 51.2502 64.9999 51.2502C63.6191 51.2502 62.5 52.3698 62.5 53.7502Z" fill="#69B99D"/>
<path d="M37.134 37.8668C36.6457 37.3795 35.8543 37.3795 35.3665 37.8668C34.4666 38.8429 33.2005 39.3985 31.8734 39.3985C30.5457 39.3985 29.2796 38.8429 28.3798 37.8668C27.8886 37.3942 27.1093 37.4025 26.6273 37.8859C26.1464 38.3692 26.1415 39.1485 26.6166 39.6383C28.0599 41.0689 29.9925 41.8985 32.0237 41.9595C33.9729 41.9185 35.8206 41.0792 37.134 39.6383C37.3689 39.4039 37.5012 39.0851 37.5012 38.7525C37.5012 38.4205 37.3689 38.1012 37.134 37.8668Z" fill="#69B99D"/>
<path fill-rule="evenodd" clip-rule="evenodd" d="M36.4277 38.5747L36.4276 38.5746C36.3324 38.4796 36.1796 38.4773 36.0818 38.5661C34.9942 39.7338 33.4705 40.3985 31.8734 40.3985C30.2802 40.3985 28.7605 39.7376 27.6735 38.5758C27.5756 38.4938 27.4291 38.4984 27.3359 38.5915C27.2416 38.6866 27.239 38.8388 27.33 38.9373C28.5863 40.1779 30.2639 40.8997 32.0281 40.9591C33.694 40.9172 35.2718 40.1968 36.395 38.9646L36.4109 38.9471L36.4277 38.9304C36.4744 38.8838 36.5012 38.8197 36.5012 38.7525C36.5012 38.6857 36.4742 38.6212 36.4277 38.5747ZM32.0237 41.9595C29.9925 41.8985 28.0599 41.0689 26.6166 39.6383C26.1415 39.1485 26.1464 38.3692 26.6273 37.8859C27.1093 37.4025 27.8886 37.3942 28.3798 37.8668C29.2796 38.8429 30.5457 39.3985 31.8734 39.3985C33.2005 39.3985 34.4666 38.8429 35.3665 37.8668C35.8543 37.3795 36.6457 37.3795 37.134 37.8668C37.3689 38.1012 37.5012 38.4205 37.5012 38.7525C37.5012 39.0851 37.3689 39.4039 37.134 39.6383C35.8206 41.0792 33.9729 41.9185 32.0237 41.9595Z" fill="#69B99D"/>
<path d="M53.384 37.8668C52.8957 37.3795 52.1043 37.3795 51.6165 37.8668C50.7166 38.8429 49.4505 39.3985 48.1234 39.3985C46.7957 39.3985 45.5296 38.8429 44.6298 37.8668C44.1386 37.3942 43.3593 37.4025 42.8773 37.8859C42.3964 38.3692 42.3915 39.1485 42.8666 39.6383C44.3099 41.0689 46.2425 41.8985 48.2737 41.9595C50.2229 41.9185 52.0706 41.0792 53.384 39.6383C53.6189 39.4039 53.7512 39.0851 53.7512 38.7525C53.7512 38.4205 53.6189 38.1012 53.384 37.8668Z" fill="#69B99D"/>
<path fill-rule="evenodd" clip-rule="evenodd" d="M52.6777 38.5747L52.6776 38.5746C52.5824 38.4796 52.4296 38.4773 52.3318 38.5661C51.2442 39.7338 49.7205 40.3985 48.1234 40.3985C46.5302 40.3985 45.0105 39.7376 43.9235 38.5758C43.8256 38.4938 43.6791 38.4984 43.5859 38.5915C43.4916 38.6866 43.489 38.8388 43.58 38.9373C44.8363 40.1779 46.5139 40.8997 48.2781 40.9591C49.944 40.9172 51.5218 40.1968 52.645 38.9646L52.6609 38.9471L52.6777 38.9304C52.7244 38.8838 52.7512 38.8197 52.7512 38.7525C52.7512 38.6857 52.7242 38.6212 52.6777 38.5747ZM48.2737 41.9595C46.2425 41.8985 44.3099 41.0689 42.8666 39.6383C42.3915 39.1485 42.3964 38.3692 42.8773 37.8859C43.3593 37.4025 44.1386 37.3942 44.6298 37.8668C45.5296 38.8429 46.7957 39.3985 48.1234 39.3985C49.4505 39.3985 50.7166 38.8429 51.6165 37.8668C52.1043 37.3795 52.8957 37.3795 53.384 37.8668C53.6189 38.1012 53.7512 38.4205 53.7512 38.7525C53.7512 39.0851 53.6189 39.4039 53.384 39.6383C52.0706 41.0792 50.2229 41.9185 48.2737 41.9595Z" fill="#69B99D"/>
<path d="M44.1165 49.1167C40.1473 53.0839 36.3114 49.5366 35.8817 49.1167C35.3905 48.6441 34.6103 48.6519 34.1293 49.1348C33.6479 49.6172 33.6415 50.3974 34.1166 50.8867C35.7309 52.4882 37.8934 53.4174 40.1663 53.4858C42.3474 53.4389 44.4143 52.4994 45.884 50.8867C46.3576 50.396 46.3508 49.6167 45.8689 49.1348C45.3865 48.6524 44.6067 48.6455 44.1165 49.1191V49.1167Z" fill="#69B99D"/>
<path fill-rule="evenodd" clip-rule="evenodd" d="M44.1177 49.1179C44.1181 49.1175 44.1186 49.1171 44.119 49.1167C44.3951 48.8514 44.7623 48.7379 45.1165 48.7753C45.3914 48.8044 45.6584 48.9243 45.8689 49.1348C46.3508 49.6167 46.3576 50.396 45.884 50.8867C44.4143 52.4994 42.3474 53.4389 40.1663 53.4858C37.8934 53.4174 35.7309 52.4882 34.1166 50.8867C33.6415 50.3974 33.6479 49.6172 34.1293 49.1348C34.6103 48.6519 35.3905 48.6441 35.8817 49.1167C36.2752 49.5012 39.5242 52.5075 43.1165 49.9669C43.4467 49.7333 43.7799 49.4528 44.114 49.1191C44.1144 49.1187 44.1148 49.1183 44.1153 49.1179C44.1157 49.1175 44.1161 49.1171 44.1165 49.1167V49.1191C44.1169 49.1187 44.1173 49.1183 44.1177 49.1179ZM43.1165 51.1529V51.4757L44.8113 49.8383C44.9088 49.7441 45.0648 49.7449 45.1618 49.8419C45.2578 49.9379 45.2596 50.0937 45.1645 50.1922L45.1545 50.2025L45.1449 50.2131C43.8654 51.6171 42.0684 52.4376 40.1705 52.4854C38.1647 52.4185 36.2572 51.5972 34.8299 50.1857" fill="#69B99D"/>
</svg>
