<svg width="24" height="24" viewBox="0 0 24 24" fill="none" xmlns="http://www.w3.org/2000/svg">
<g clip-path="url(#clip0_104_45)">
<path fill-rule="evenodd" clip-rule="evenodd" d="M11.9999 3C11.9999 3 12 3 12 4L12 5L11.9245 5.00011C11.8745 5.00022 11.8006 5.00044 11.7057 5.00089C11.516 5.00178 11.2425 5.00356 10.9088 5.00713C10.2411 5.01427 9.33398 5.02855 8.37471 5.05706C7.41384 5.08561 6.40861 5.12821 5.54213 5.19141C4.65402 5.25619 3.99413 5.33761 3.66536 5.42419C3.36666 5.51 3.09559 5.67253 2.87915 5.89566C2.66801 6.11333 2.51611 6.38119 2.43762 6.67375C2.13808 8.34737 1.99159 10.0448 1.99999 11.7451L2.00005 11.7563C1.98933 13.4635 2.13471 15.1681 2.43448 16.8487C2.52111 17.1264 2.67454 17.3788 2.88158 17.5837C3.0985 17.7984 3.36695 17.9537 3.66114 18.0347C3.98847 18.1217 4.6502 18.2035 5.54213 18.2686C6.40861 18.3318 7.41384 18.3744 8.37471 18.4029C9.33398 18.4314 10.2411 18.4457 10.9088 18.4529C11.2425 18.4564 11.516 18.4582 11.7057 18.4591C11.8006 18.4596 11.8745 18.4598 11.9245 18.4599H12.0755C12.1255 18.4598 12.1994 18.4596 12.2943 18.4591C12.4841 18.4582 12.7575 18.4564 13.0912 18.4529C13.759 18.4457 14.666 18.4314 15.6253 18.4029C16.5862 18.3744 17.5914 18.3318 18.4579 18.2686C19.346 18.2038 20.0059 18.1224 20.3347 18.0358C20.6334 17.95 20.9044 17.7875 21.1209 17.5643C21.332 17.3467 21.4839 17.0788 21.5624 16.7863C21.8596 15.1253 22.0061 13.4409 22 11.7536L22 11.7437C22.0107 10.0306 21.8643 8.32008 21.5624 6.63377C21.4839 6.3412 21.332 6.07333 21.1209 5.85566C20.9069 5.63509 20.6396 5.47373 20.3449 5.38717C20.005 5.3072 19.3426 5.23348 18.4642 5.17498C17.5959 5.11716 16.5893 5.07822 15.6279 5.05213C14.6679 5.02609 13.7602 5.01304 13.0921 5.00651C12.7582 5.00325 12.4846 5.00162 12.2947 5.00081L12.0757 5.0001L12 5L12 4C12 3 11.9999 3 11.9999 3L12.0797 3.0001C12.1312 3.00021 12.2067 3.00042 12.3033 3.00083C12.4963 3.00166 12.7737 3.00331 13.1116 3.00661C13.7873 3.01321 14.7071 3.02641 15.6821 3.05287C16.6557 3.07928 17.6916 3.11909 18.5971 3.1794C19.4767 3.23798 20.3115 3.32017 20.8372 3.44854C20.849 3.45141 20.8606 3.45448 20.8722 3.45777C21.5123 3.63886 22.0933 3.98566 22.5565 4.46315C23.0196 4.94063 23.3486 5.53189 23.5101 6.17719C23.5155 6.19879 23.5202 6.22057 23.5241 6.24249C23.852 8.06021 24.0113 9.90432 24 11.7513C24.0063 13.5707 23.847 15.3869 23.5241 17.1774C23.5202 17.1994 23.5155 17.2212 23.5101 17.2428C23.3486 17.8881 23.0196 18.4794 22.5565 18.9569C22.0933 19.4343 21.5123 19.7811 20.8722 19.9622L20.8584 19.966C20.3247 20.1088 19.4827 20.1992 18.6034 20.2633C17.6961 20.3295 16.6588 20.3731 15.6847 20.4021C14.709 20.4311 13.7886 20.4455 13.1126 20.4528C12.7744 20.4564 12.4969 20.4582 12.3037 20.4591C12.2071 20.4595 12.1315 20.4598 12.0799 20.4599L12.0005 20.46L11.9201 20.4599C11.8685 20.4598 11.7929 20.4595 11.6963 20.4591C11.5031 20.4582 11.2256 20.4564 10.8874 20.4528C10.2115 20.4455 9.29103 20.4311 8.3153 20.4021C7.34118 20.3731 6.3039 20.3295 5.39664 20.2633C4.51733 20.1992 3.67529 20.1088 3.14165 19.966L3.13609 19.9646C2.50901 19.793 1.9368 19.4626 1.47472 19.0052C1.01264 18.5479 0.676315 17.9792 0.498248 17.3539C0.489209 17.3222 0.481747 17.29 0.475889 17.2575C0.14805 15.44 -0.0112584 13.5961 -7.92317e-06 11.7493C-0.00872218 9.91636 0.150573 8.08643 0.475881 6.28253C0.479836 6.2606 0.484522 6.23881 0.489932 6.21719C0.651451 5.57189 0.980402 4.98063 1.44356 4.50315C1.90672 4.02566 2.48769 3.67886 3.12777 3.49777L3.14165 3.49395C3.67529 3.35123 4.51733 3.26085 5.39664 3.19671C6.3039 3.13054 7.34118 3.08689 8.3153 3.05794C9.29103 3.02895 10.2115 3.01448 10.8874 3.00724C11.2256 3.00363 11.5031 3.00182 11.6963 3.00091C11.7929 3.00046 11.8685 3.00023 11.9201 3.00011L11.9999 3Z" fill="#69B99D"/>
<path fill-rule="evenodd" clip-rule="evenodd" d="M11.9999 2.5L12.0804 2.50011C12.1322 2.50021 12.2085 2.50042 12.3054 2.50083C12.4993 2.50167 12.7775 2.50332 13.1165 2.50663C13.794 2.51325 14.7169 2.5265 15.6957 2.55305C16.6723 2.57955 17.7155 2.61958 18.6303 2.6805C19.5066 2.73886 20.3823 2.82278 20.9558 2.96282M21.0084 2.97666C21.7331 3.18171 22.3909 3.57438 22.9153 4.11502C23.4398 4.65566 23.8122 5.32513 23.9951 6.05579C24.0032 6.08818 24.0103 6.12085 24.0162 6.15375C24.0162 6.15375 24.0162 6.15374 24.0162 6.15375C24.3494 8.001 24.5114 9.87506 24.5 11.7521C24.5 11.7513 24.5 11.7504 24.5 11.7496L24 11.7513L24.5 11.7544C24.5 11.7536 24.5 11.7528 24.5 11.7521C24.5062 13.601 24.3443 15.4466 24.0162 17.2662C24.0103 17.2991 24.0032 17.3318 23.9951 17.3642C23.8122 18.0949 23.4398 18.7643 22.9153 19.305C22.3909 19.8456 21.7331 20.2383 21.0084 20.4433L21.005 20.4443L20.9911 20.4481L20.9876 20.4491C20.4022 20.6056 19.5156 20.6981 18.6398 20.762C17.7223 20.8289 16.677 20.8728 15.6996 20.9018C14.7197 20.931 13.796 20.9455 13.1179 20.9527C12.7786 20.9564 12.5001 20.9582 12.306 20.9591C12.209 20.9595 12.133 20.9598 12.081 20.9599L12.0012 20.96H11.9997L11.9194 20.9599C11.8674 20.9598 11.791 20.9595 11.694 20.9591C11.4999 20.9582 11.2214 20.9564 10.8821 20.9527C10.204 20.9455 9.28029 20.931 8.30045 20.9018C7.32301 20.8728 6.27773 20.8289 5.36026 20.762C4.48441 20.6981 3.59781 20.6056 3.01247 20.4491L3.00684 20.4476L3.00413 20.4468C2.2941 20.2526 1.6462 19.8784 1.123 19.3606C0.599798 18.8428 0.21899 18.1988 0.017369 17.4908C0.00381033 17.4432 -0.0073831 17.395 -0.0161702 17.3463C-0.349313 15.4994 -0.511281 13.6257 -0.500015 11.749C-0.500011 11.7499 -0.500007 11.7508 -0.500002 11.7517L-7.92742e-06 11.7493L-0.499999 11.7463C-0.500004 11.7472 -0.50001 11.7481 -0.500015 11.749C-0.508705 9.88638 -0.346751 8.02687 -0.0161815 6.19379C-0.0102498 6.1609 -0.00322036 6.12821 0.00489515 6.09579C0.187778 5.36513 0.560242 4.69566 1.08467 4.15502C1.60909 3.61438 2.2669 3.2217 2.99166 3.01665L2.99512 3.01567L3.01246 3.01092C3.59781 2.85437 4.48441 2.76192 5.36026 2.69804C6.27773 2.63112 7.32301 2.58721 8.30045 2.55816C9.28029 2.52905 10.204 2.51453 10.8821 2.50727C11.2214 2.50364 11.4999 2.50183 11.694 2.50092C11.791 2.50046 11.867 2.50023 11.919 2.50012L11.9999 2.5M11.9999 3.5C11.9999 3.5 12 3.5 11.9999 3.5L11.9792 3.50003C11.9939 3.50061 12.0016 3.50002 11.9999 3.5ZM11.5 3.50201C11.3321 3.50307 11.1271 3.50471 10.8928 3.50722C10.2189 3.51443 9.30177 3.52885 8.33016 3.55772C7.35934 3.58657 6.33008 3.62996 5.43301 3.69539C4.55127 3.7597 3.75461 3.84788 3.27249 3.97653L3.26223 3.97936C2.70746 4.13662 2.20395 4.43737 1.80246 4.85128C1.40056 5.2656 1.11512 5.77865 0.97497 6.3386C0.972265 6.3494 0.969922 6.3603 0.967944 6.37126C0.648058 8.14511 0.491417 9.94453 0.499986 11.747L0.500012 11.7524C0.488949 13.5684 0.645573 15.3815 0.967948 17.1688C0.970877 17.185 0.974608 17.2011 0.979128 17.2169C1.13364 17.7595 1.42548 18.253 1.82643 18.6499C2.22711 19.0464 2.7232 19.333 3.26684 19.482C3.26724 19.4821 3.26764 19.4822 3.26804 19.4823L3.27083 19.483C3.75277 19.6119 4.55026 19.7002 5.43301 19.7646C6.33008 19.83 7.35935 19.8734 8.33016 19.9023C9.30177 19.9312 10.2189 19.9456 10.8928 19.9528C11.2298 19.9564 11.5063 19.9582 11.6987 19.9591C11.7946 19.9595 11.8696 19.9598 11.9208 19.9599C11.921 19.9599 11.9207 19.9599 11.9208 19.9599M12.0012 19.96H11.9997L11.9208 19.9599M12.0788 19.9599L12.0012 19.96ZM20.7276 19.4835C20.2455 19.6121 19.4488 19.7003 18.567 19.7646C17.6699 19.83 16.6407 19.8734 15.6699 19.9023C14.6982 19.9312 13.7812 19.9456 13.1072 19.9528C12.7702 19.9564 12.4937 19.9582 12.3013 19.9591C12.2054 19.9595 12.13 19.9598 12.0788 19.9599M20.7292 19.483C20.7287 19.4832 20.7281 19.4833 20.7276 19.4835ZM20.7292 19.483L20.7361 19.4811C20.7367 19.481 20.7372 19.4808 20.7378 19.4806C21.2925 19.3234 21.7961 19.0226 22.1976 18.6087C22.5995 18.1944 22.8849 17.6814 23.025 17.1214C23.0268 17.1143 23.0284 17.1072 23.0299 17.1C23.0307 17.0963 23.0314 17.0925 23.0321 17.0887C23.3495 15.328 23.5062 13.5421 23.5 11.753L23.5 11.7483C23.5111 9.93205 23.3545 8.11867 23.0321 6.33124C23.0301 6.32031 23.0278 6.30941 23.025 6.2986C22.8849 5.73865 22.5995 5.2256 22.1976 4.81128C21.7957 4.39695 21.2915 4.09602 20.7361 3.93888C20.7303 3.93725 20.7245 3.9357 20.7186 3.93427C20.2406 3.81756 19.4468 3.7371 18.5639 3.67829C17.6677 3.61861 16.6391 3.57902 15.6686 3.55268C14.6973 3.52633 13.7805 3.51317 13.1068 3.50659C12.8726 3.5043 12.6677 3.50281 12.5 3.50183L12.5 4.50185C12.6655 4.50282 12.867 4.50429 13.097 4.50654C13.767 4.51308 14.6777 4.52617 15.6414 4.55232C16.6059 4.57848 17.6199 4.61764 18.4974 4.67608C19.3732 4.73441 20.0741 4.80982 20.4594 4.90046C20.4683 4.90255 20.4771 4.90488 20.4858 4.90744C20.8633 5.01832 21.2057 5.225 21.4798 5.50754C21.7502 5.78634 21.9448 6.12946 22.0453 6.50421C22.049 6.51789 22.0521 6.53172 22.0546 6.54566C22.3617 8.26133 22.5108 10.0016 22.5 11.7445L22.5 11.7518M11.5 3.50201L11.5 4.50203ZM11.9253 5.50011C11.8756 5.50022 11.8023 5.50044 11.7081 5.50088C11.5192 5.50177 11.2467 5.50354 10.9142 5.5071C10.2485 5.51422 9.34472 5.52846 8.38956 5.55684C7.432 5.58529 6.43479 5.62763 5.5785 5.69009C4.69256 5.75471 4.07868 5.83347 3.79814 5.90628C3.58543 5.96838 3.39241 6.08465 3.23804 6.24379C3.09078 6.39561 2.98358 6.5814 2.92576 6.78441C2.63429 8.42083 2.49178 10.0804 2.49999 11.7426L2.50007 11.7594C2.48961 13.4248 2.63038 15.0877 2.92077 16.7275C2.9844 16.9162 3.09132 17.0878 3.2333 17.2283C3.38876 17.3822 3.58104 17.4936 3.79177 17.552C4.06866 17.6252 4.68497 17.7047 5.5785 17.7699C6.43478 17.8324 7.432 17.8747 8.38956 17.9032C9.34472 17.9315 10.2485 17.9458 10.9142 17.9529C11.2467 17.9565 11.5192 17.9582 11.7081 17.9591C11.8022 17.9596 11.8756 17.9598 11.9252 17.9599C11.9253 17.9599 11.9251 17.9599 11.9252 17.9599L12.0744 17.9599C12.0745 17.9599 12.0742 17.9599 12.0744 17.9599C12.124 17.9598 12.1978 17.9596 12.292 17.9591C12.4808 17.9582 12.7533 17.9565 13.0858 17.9529C13.7515 17.9458 14.6553 17.9315 15.6105 17.9032C16.568 17.8747 17.5652 17.8324 18.4215 17.7699C19.3075 17.7053 19.9214 17.6265 20.2019 17.5537C20.4146 17.4916 20.6076 17.3754 20.762 17.2162C20.9092 17.0644 21.0164 16.8786 21.0742 16.6756C21.3634 15.0517 21.5059 13.405 21.5 11.7554L21.5 11.7455L21.5 11.7406C21.5105 10.0657 21.368 8.39332 21.0743 6.74442C21.0164 6.54141 20.9092 6.35562 20.762 6.20379C20.6112 6.04837 20.4236 5.93383 20.2168 5.87073C19.9168 5.80239 19.2987 5.73166 18.431 5.67387C17.572 5.61667 16.5728 5.57795 15.6143 5.55195C14.6581 5.526 13.7535 5.513 13.0872 5.50649C12.7545 5.50324 12.4819 5.50162 12.2928 5.50081C12.2927 5.50081 12.2928 5.50081 12.2928 5.50081L12.075 5.5001L12.0007 5.5H11.9993L11.9253 5.50011Z" fill="#69B99D"/>
<path fill-rule="evenodd" clip-rule="evenodd" d="M9.24718 7.61559C9.55499 7.43653 9.9348 7.43468 10.2443 7.61072L15.9943 10.8807C16.3069 11.0585 16.5 11.3904 16.5 11.75C16.5 12.1096 16.3069 12.4415 15.9943 12.6192L10.2443 15.8892C9.9348 16.0653 9.55499 16.0634 9.24718 15.8844C8.93937 15.7053 8.75 15.3761 8.75 15.02V8.47998C8.75 8.12388 8.93937 7.79464 9.24718 7.61559ZM10.75 10.1991V13.3009L13.4771 11.75L10.75 10.1991Z" fill="#69B99D"/>
<path fill-rule="evenodd" clip-rule="evenodd" d="M9.99717 8.04535C9.8424 7.95733 9.6525 7.95826 9.49859 8.04778C9.34468 8.13731 9.25 8.30193 9.25 8.47998V15.02C9.25 15.198 9.34469 15.3627 9.49859 15.4522C9.6525 15.5417 9.8424 15.5426 9.99717 15.4546L15.7472 12.1846C15.9035 12.0957 16 11.9298 16 11.75C16 11.5702 15.9035 11.4042 15.7472 11.3153L9.99717 8.04535ZM8.99577 7.18339C9.45749 6.91481 10.0272 6.91203 10.4915 7.17608L16.2415 10.4461C16.7104 10.7127 17 11.2106 17 11.75C17 12.2894 16.7104 12.7872 16.2415 13.0539L10.4915 16.3239C10.0272 16.5879 9.45749 16.5852 8.99577 16.3166C8.53405 16.048 8.25 15.5541 8.25 15.02V8.47998C8.25 7.94583 8.53405 7.45197 8.99577 7.18339ZM10.4986 9.76688C10.6525 9.67735 10.8424 9.67642 10.9972 9.76444L13.7243 11.3153C13.8806 11.4042 13.9771 11.5702 13.9771 11.75C13.9771 11.9298 13.8806 12.0957 13.7243 12.1846L10.9972 13.7355C10.8424 13.8235 10.6525 13.8226 10.4986 13.7331C10.3447 13.6436 10.25 13.4789 10.25 13.3009V10.1991C10.25 10.021 10.3447 9.85641 10.4986 9.76688ZM11.25 11.0586V12.4413L12.4657 11.75L11.25 11.0586Z" fill="#69B99D"/>
</g>
<defs>
<clipPath id="clip0_104_45">
<rect width="24" height="24" fill="white"/>
</clipPath>
</defs>
</svg>
